<svg width="722" height="483" viewBox="0 0 722 483" fill="none" xmlns="http://www.w3.org/2000/svg">
<g opacity="0.06" clip-path="url(#clip0_54_187)">
<path d="M439.628 376.085L439.536 376.177H439.72L439.628 376.085Z" fill="#8CC869"/>
<path d="M474.778 404.06V404.381L474.939 404.22L474.778 404.06Z" fill="#8CC869"/>
<path d="M483.359 0H0V483H722V0H483.359ZM671.951 238.577H628.381L718.577 140.505V190.896L671.94 238.577H671.951ZM718.588 195.777V238.577H676.73L718.588 195.777ZM623.752 238.577H579.194V215.334L718.577 75.9888V135.464L623.741 238.577H623.752ZM579.194 210.511V146.442L718.588 5.68451V71.1655L579.206 210.511H579.194ZM716.038 3.41071L579.206 141.585C579.206 141.585 579.206 98.0378 579.194 97.4177C579.148 94.4778 578.976 91.492 578.654 88.5636L663.784 3.41071H716.038ZM658.96 3.41071L578.115 84.2686C576.07 70.6143 571.108 57.649 563.767 46.1996L606.556 3.41071H658.948H658.96ZM601.743 3.41071L561.849 43.2942C554.819 33.1195 545.871 24.2539 535.395 17.3062L549.328 3.41071H601.743ZM544.492 3.41071L532.443 15.4343C525.022 10.8523 517.13 6.94774 502.875 3.41071H544.481H544.492ZM483.359 4.67393H487.781C512.8 6.35058 568.018 25.2415 575.185 88.1157C575.542 91.2049 575.737 94.3629 575.771 97.4866C575.771 98.0033 575.783 238.566 575.783 238.577H530.972C530.972 238.577 531.351 95.1094 530.972 91.492C529.077 66.4571 508.309 46.5786 483.347 45.5221V4.67393H483.359ZM483.359 48.9328C506.551 49.9778 525.815 68.4668 527.572 91.7217C528.055 98.8302 527.572 238.577 527.572 238.577H483.359V48.9328ZM483.359 270.388C488.942 292.781 500.681 312.683 516.579 328.22H483.359V270.388ZM284.06 242.068H336.969L290.884 288.142L264.429 261.694L284.06 242.068ZM261.994 259.26L244.798 242.068H279.19L261.994 259.26ZM341.84 242.068H388.603L317.683 314.934L293.319 290.576L341.84 242.068ZM393.405 242.08H393.393L444.797 242.068L346.572 343.816L320.129 317.38L393.405 242.08ZM270.357 238.577C297.535 231.802 321.048 215.977 337.555 194.663V238.577H270.357ZM359.576 93.0997C355.705 76.919 348.537 61.9325 338.784 48.9098H479.913V93.0997H359.576ZM479.913 96.5793V238.577H450.851V96.5793H479.913ZM447.382 96.5793V238.577H393.565V96.5793H447.382ZM360.357 96.5793H390.096V238.577H341.001V190.012H340.99C354.797 170.352 362.872 146.5 362.872 120.983C362.872 112.634 362.011 104.469 360.357 96.5793ZM479.913 3.41071V45.4532H336.073C319.681 25.0923 296.777 9.99097 270.426 3.41071H479.913ZM242.053 143.468C242.156 143.468 242.26 143.468 242.363 143.445C255.435 142.584 265.808 131.651 265.808 118.33C265.808 105.008 255.458 94.0873 242.363 93.2146C242.26 93.1916 242.156 93.1916 242.053 93.1916V48.393C242.156 48.393 242.26 48.393 242.363 48.393C280.098 49.7481 310.457 80.7086 310.457 118.33C310.457 155.951 280.098 186.9 242.363 188.255C242.26 188.255 242.156 188.255 242.053 188.255V143.456V143.468ZM242.374 140.023V96.6138C253.54 97.4751 262.362 106.88 262.362 118.318C262.362 129.756 253.563 139.139 242.374 140.011V140.023ZM242.053 191.677C242.156 191.677 242.26 191.677 242.363 191.677C281.993 190.322 313.904 157.834 313.904 118.341C313.904 78.8482 281.993 46.3604 242.363 44.9938C242.26 44.9938 242.156 44.9938 242.053 44.9938V3.41071H248.52C310.71 7.5449 359.426 59.1879 359.426 120.983C359.426 182.777 310.71 234.432 248.52 238.577H242.053V191.666V191.677ZM3.41162 3.41071H238.641V44.9364H3.41162V3.41071ZM3.41162 48.3471H238.641V93.1457H3.41162V48.3471ZM3.41162 96.5564H238.641V139.862H94.2733L94.1584 139.747L94.0436 139.862H51.1169L50.979 139.724L50.8412 139.862H3.41162V96.5564ZM188.639 238.577H145.597L238.641 145.558V188.577L188.639 238.577ZM238.641 193.411V238.577H193.463L238.641 193.411ZM192.705 143.273H236.16L140.818 238.577H97.3633L192.705 143.273ZM92.5962 238.577H47.958L143.231 143.273H187.926L92.5962 238.577ZM3.41162 143.273H47.3492L3.41162 186.234V143.273ZM3.41162 191L52.2426 143.273H90.6319L3.41162 230.47V191ZM3.41162 235.293L95.4565 143.273H138.418L43.1334 238.577H3.41162V235.293ZM3.42311 356.999V303.323H238.905V356.999H3.43459H3.42311ZM238.905 360.444V416.853H186.548V360.444H238.905ZM3.43459 299.878V242.068H238.917V299.878H3.43459ZM57.7104 479.555H3.43459V420.298H57.7104V479.555ZM57.7104 416.853H3.43459V360.444H57.7104V416.853ZM120.406 479.555H61.1335V420.298H120.406V479.555ZM120.406 416.853H61.1335V360.444H120.406V416.853ZM183.136 479.555H123.829V420.298H183.136V479.555ZM183.136 416.853H123.829V360.444H183.136V416.853ZM186.571 479.555V420.298H238.928V479.555H186.571ZM243.259 479.555V418.679L304.151 479.555H243.259ZM309.022 479.555L243.259 413.81V360.915L361.93 479.555H309.022ZM366.801 479.555L243.259 356.046V303.151L419.71 479.555H366.801ZM424.58 479.555L243.259 298.282V245.387L477.489 479.555H424.58ZM479.924 477.12L464.474 461.674L479.924 448.353V477.12ZM479.924 443.806L462.028 459.228L435.539 432.747L479.924 391.726V443.806ZM479.924 387.029L433.104 430.312L406.844 404.06L479.924 334.295V387.029ZM479.924 329.541L404.409 401.625L377.92 375.144L479.924 270.376V329.541ZM479.924 265.427L375.474 372.697L349.019 346.25L449.587 242.068H479.924V265.427ZM718.6 479.555H483.37V446.309H718.6V479.555ZM718.6 442.864H483.37V389.51H718.6V442.864ZM718.6 386.065H483.37V331.666H520.243C541.781 351.085 570.143 362.856 600.985 362.856C631.828 362.856 660.189 351.085 681.738 331.666H718.6V386.065ZM718.6 328.22H685.391C701.278 312.694 713.006 292.793 718.6 270.411V328.22ZM718.6 248.534C714.453 310.708 662.808 359.411 600.985 359.411C539.162 359.411 487.517 310.708 483.37 248.534V242.068H527.618C528.824 281.837 561.378 313.9 600.985 313.9C640.592 313.9 673.158 281.837 674.364 242.068H718.6V248.534ZM600.985 265.817C614.31 265.817 625.246 255.332 626.107 242.068H670.941C669.746 279.931 638.708 310.455 600.974 310.455C563.239 310.455 532.213 279.931 531.018 242.068H575.84C576.69 255.309 587.637 265.817 600.962 265.817H600.985ZM579.286 242.068H622.718C621.868 253.415 612.449 262.372 600.997 262.372C589.544 262.372 580.159 253.426 579.298 242.068H579.286Z" fill="#8CC869"/>
</g>
<defs>
<clipPath id="clip0_54_187">
<rect width="722" height="483" fill="white"/>
</clipPath>
</defs>
</svg>
