<svg width="336" height="253" viewBox="0 0 336 253" fill="none" xmlns="http://www.w3.org/2000/svg">
<g clip-path="url(#clip0_54_197)">
<path d="M0.0700073 219.41V159.74H25.27C41.03 159.74 44.73 170.39 44.73 179.01C44.73 187.63 40 197.82 24.9 197.82H7.67001V219.41H0.0700073ZM7.67001 191.89H23.7C34.37 191.89 37.14 185.1 37.14 179.01C37.14 172.92 34.61 165.76 24.17 165.76H7.67001V191.89Z" fill="white"/>
<path d="M63.91 220.34C61.11 220.34 48.44 219.49 48.44 207.09C48.44 199.67 52.72 193.38 65.4 193.38H80.69C80.69 193.38 82.2 184 76.06 181.89C69.04 179.47 57.56 182 53.54 183.37V177.07C61.71 174 76.72 173.07 83.24 178.37C86.36 180.9 87.92 185.01 87.92 190.69V219.41H81.53L80.97 214.41C77.23 218.27 72.31 220.34 63.92 220.34H63.91ZM65.86 214.13C72.35 214.13 77.27 211.64 80.69 207.74V199.22H65.59C59.59 199.22 55.95 201.1 55.95 207.1C55.95 213.03 60.52 214.14 65.86 214.14V214.13Z" fill="white"/>
<path d="M192.15 220.34C189.35 220.34 176.68 219.49 176.68 207.09C176.68 199.67 180.96 193.38 193.64 193.38H208.93C208.93 193.38 210.44 184 204.3 181.89C197.28 179.47 185.8 182 181.78 183.37V177.07C189.95 174 204.96 173.07 211.48 178.37C214.6 180.9 216.16 185.01 216.16 190.69V219.41H209.77L209.21 214.41C205.47 218.27 200.55 220.34 192.16 220.34H192.15ZM194.1 214.13C200.59 214.13 205.51 211.64 208.93 207.74V199.22H193.83C187.83 199.22 184.19 201.1 184.19 207.1C184.19 213.03 188.76 214.14 194.1 214.14V214.13Z" fill="white"/>
<path d="M96.71 219.41V175.49H103.57L104.03 180.49C106.22 178.69 112.06 174.56 121.08 174.56C132.33 174.56 137.02 179.72 137.02 190.68V219.4H129.42V190.95C129.42 183.6 127.21 180.67 118.21 180.67C112.91 180.67 107.86 182.68 104.31 186.23V219.4H96.71V219.41Z" fill="white"/>
<path d="M149.78 207.18V181.51H143.11V175.49H149.78V164.65L157.38 162.33V175.49H169.52L169.06 181.51H157.39V206.81C157.39 217.02 168.21 214.11 170.73 213.3V219.04C166.77 220.54 149.79 223.79 149.79 207.18H149.78Z" fill="white"/>
<path d="M247.29 220.34C240.96 220.34 236.21 218.74 232 214.78L231.44 219.41H224.95V159.74H232.55V178.73C236.57 175.95 241.45 174.56 247.19 174.56C261.58 174.56 267.11 183.43 267.11 197.08C267.11 213.54 259.24 220.34 247.28 220.34H247.29ZM245.34 214.22C255.33 214.22 259.52 208.87 259.52 197.08C259.52 185.09 255 180.68 245.16 180.68C242.5 180.68 240.12 181.07 238.03 181.84C235.93 182.61 234.11 183.68 232.56 185.04V208.95C235.84 212.48 240.24 214.23 245.35 214.23L245.34 214.22Z" fill="white"/>
<path d="M275.86 219.41V181.51H269.1L269.84 175.49H283.46V219.41H275.86ZM275.86 166.63V159.73H283.55V166.63H275.86Z" fill="white"/>
<path d="M313.33 220.34C297.74 220.34 291.37 211.99 291.37 197.45C291.37 184.59 296.6 174.56 313.33 174.56C331.05 174.56 335.29 186.09 335.29 197.45C335.29 212.38 328.68 220.34 313.33 220.34ZM313.33 213.85C325.55 213.85 327.69 206.46 327.69 197.45C327.69 183.84 321.5 181.05 313.33 181.05C301.3 181.05 298.97 188.14 298.97 197.45C298.97 210.62 304.53 213.85 313.33 213.85Z" fill="white"/>
<path d="M178.56 95.4297C176.27 96.3197 173.11 97.1797 170.02 97.3797C170.14 97.5497 190.67 133.13 190.95 133.64C194.65 132.66 198.71 130.35 198.71 130.35C198.71 130.35 178.81 95.8697 178.55 95.4397L178.56 95.4297Z" fill="white"/>
<path d="M165.97 39.8397C165.97 39.8397 160.65 40.4897 157.5 41.8997C156.69 40.4897 137.65 7.47971 137.35 6.98971C140.07 5.61971 141.75 4.89971 145.11 3.69971C145.28 3.99971 165.97 39.8497 165.97 39.8497V39.8397Z" fill="white"/>
<path d="M190.96 3.70977C190.89 3.86977 177.78 26.5398 177.78 26.5398L172.85 18.0098C172.85 18.0098 182.13 1.93977 182.49 1.30977C179.3 0.629766 176.93 0.279766 173.58 0.00976562C173.28 0.529766 168.02 9.63977 168.02 9.63977C168.02 9.63977 163.05 0.989766 162.46 0.00976562C159.13 0.279766 157.04 0.589766 153.55 1.29977C153.71 1.65977 176.58 41.2098 176.58 41.2098L178.54 41.9398C178.54 41.9398 198.61 7.20977 198.71 7.00977C195.75 5.50977 193.83 4.69977 190.95 3.70977H190.96Z" fill="white"/>
<path d="M129.96 11.26C126.54 13.58 123.24 16.35 123.24 16.35L136.4 39.15H126.55C126.55 39.15 117.48 23.44 116.93 22.48C114.32 25.21 111.34 29.53 111.34 29.53L116.89 39.14C116.89 39.14 106.32 39.14 105.77 39.14C103.53 43.48 102.43 47.51 102.43 47.51H148.55L150.11 46.16C150.11 46.16 130.31 11.88 129.95 11.25L129.96 11.26Z" fill="white"/>
<path d="M182.49 136.04C182.49 136.04 178.3 137.14 173.59 137.34C172.9 136.15 168.03 127.71 168.03 127.71L162.47 137.34C162.47 137.34 157.98 137.16 153.56 136.05C154.05 135.19 163.2 119.35 163.2 119.35L158.29 110.84L145.11 133.65C145.11 133.65 142.13 132.87 137.35 130.36C137.69 129.77 157.51 95.4497 157.51 95.4497L159.46 96.1097L182.5 136.04H182.49Z" fill="white"/>
<path d="M212.81 16.3798C212.37 17.1498 192.18 52.1198 191.88 52.6098C189.14 48.4898 185.92 46.1898 185.92 46.1898L206.09 11.2798C206.09 11.2798 209.94 13.3898 212.81 16.3798Z" fill="white"/>
<path d="M236.78 64.4H196.46L196.07 62.4L219.1 22.5C219.1 22.5 222.62 25.96 224.69 29.55C224.22 30.36 219.15 39.15 219.15 39.15H230.25C230.25 39.15 232.42 42.95 233.59 47.52H214.32L209.41 56.03H235.75C235.75 56.03 236.83 60.16 236.79 64.4H236.78Z" fill="white"/>
<path d="M150.12 91.1799L129.96 126.09C129.96 126.09 126.7 124.18 123.23 121.01C123.49 120.57 144.09 84.8799 144.09 84.8799C144.09 84.8799 146.75 88.5699 150.11 91.1799H150.12Z" fill="white"/>
<path d="M142.16 56.0298C140.18 60.2098 139.56 64.3998 139.56 64.3998H99.24C99.24 64.3998 99.36 60.1198 100.29 56.0298H142.16Z" fill="white"/>
<path d="M139.91 75.0699L116.94 114.86C116.94 114.86 113.58 111.34 111.35 107.81L116.9 98.1899H105.78C105.78 98.1899 103.79 94.3999 102.44 89.8199H121.73L126.65 81.2899H100.28C100.28 81.2899 99.36 77.0999 99.25 72.9199H139.49L139.9 75.0599L139.91 75.0699Z" fill="white"/>
<path d="M236.78 72.9297C236.78 72.9297 236.61 78.7197 235.75 81.2997C234.52 81.2997 193.92 81.2997 193.87 81.2997C194.74 79.7097 196.13 75.7997 196.47 72.9297C196.56 72.9297 236.78 72.9297 236.78 72.9297Z" fill="white"/>
<path d="M233.59 89.8198C233.59 89.8198 232.17 94.9798 230.25 98.1898H219.15L224.69 107.79C224.69 107.79 222.4 111.65 219.1 114.85C218.55 113.9 209.48 98.1898 209.48 98.1898H199.65L212.81 120.97C212.81 120.97 209.76 123.89 206.09 126.06C205.32 124.73 185.93 91.1498 185.93 91.1498L187.45 89.8198H233.58H233.59Z" fill="white"/>
<path d="M0 252.1V236.95H7.34C8.85 236.95 9.96 237.3 10.68 238.01C11.4 238.72 11.76 239.71 11.76 241C11.76 241.82 11.6 242.5 11.27 243.06C10.94 243.62 10.5 244.04 9.95 244.32C10.69 244.52 11.27 244.89 11.7 245.41C12.13 245.94 12.35 246.71 12.35 247.73C12.35 249.2 11.95 250.3 11.16 251.02C10.37 251.74 9.2 252.1 7.67 252.1H0ZM2.57 243.42H6.99C7.85 243.42 8.47 243.22 8.84 242.82C9.21 242.42 9.39 241.88 9.39 241.21C9.39 240.43 9.2 239.84 8.82 239.46C8.44 239.08 7.74 238.88 6.7 238.88H2.57V243.42ZM2.57 250.22H7.13C8.04 250.22 8.71 250.03 9.13 249.64C9.55 249.26 9.77 248.59 9.77 247.63C9.77 246.85 9.56 246.26 9.15 245.88C8.73 245.5 7.98 245.3 6.88 245.3H2.57V250.22Z" fill="white"/>
<path d="M15.44 252.1V236.95H18.01V252.1H15.44Z" fill="white"/>
<path d="M28.26 252.33C25.86 252.33 24.06 251.7 22.87 250.44C21.68 249.18 21.08 247.22 21.08 244.57C21.08 241.92 21.68 239.81 22.87 238.57C24.06 237.33 25.86 236.71 28.26 236.71C30.66 236.71 32.48 237.33 33.66 238.57C34.84 239.81 35.44 241.81 35.44 244.57C35.44 247.33 34.85 249.18 33.66 250.44C32.48 251.7 30.68 252.33 28.26 252.33ZM28.26 250.16C29.84 250.16 31.01 249.73 31.75 248.85C32.5 247.98 32.87 246.55 32.87 244.56C32.87 242.46 32.5 240.99 31.75 240.15C31.01 239.31 29.84 238.89 28.26 238.89C26.68 238.89 25.53 239.31 24.79 240.15C24.05 240.99 23.67 242.46 23.67 244.56C23.67 246.55 24.04 247.98 24.79 248.85C25.54 249.72 26.69 250.16 28.26 250.16Z" fill="white"/>
<path d="M38.52 252.1V236.95H45.27C46.43 236.95 47.39 237.17 48.14 237.61C48.89 238.05 49.45 238.65 49.81 239.41C50.17 240.17 50.35 241.04 50.35 242.01C50.35 243.52 49.88 244.72 48.95 245.63C48.02 246.54 46.76 246.99 45.17 246.99H41.08V252.1H38.51H38.52ZM41.09 244.97H44.71C45.73 244.97 46.5 244.7 47.02 244.17C47.54 243.64 47.8 242.92 47.8 242.01C47.8 241.04 47.55 240.28 47.06 239.75C46.57 239.22 45.82 238.95 44.84 238.95H41.1V244.97H41.09Z" fill="white"/>
<path d="M52.99 252.1V236.95H59.95C61.64 236.95 62.88 237.39 63.66 238.26C64.44 239.13 64.82 240.31 64.82 241.8C64.82 242.87 64.55 243.78 64.02 244.53C63.49 245.28 62.72 245.81 61.71 246.11C61.99 246.31 62.21 246.53 62.37 246.77C62.53 247.01 62.68 247.32 62.84 247.71L64.75 252.11H62.11L60.25 247.87C60.08 247.46 59.87 247.17 59.63 247C59.39 246.83 58.98 246.74 58.39 246.74H55.54V252.1H52.97H52.99ZM55.56 244.67H59.28C60.21 244.67 60.94 244.44 61.47 243.99C62 243.54 62.27 242.81 62.27 241.8C62.27 239.9 61.35 238.95 59.52 238.95H55.57V244.67H55.56Z" fill="white"/>
<path d="M74.28 252.33C71.88 252.33 70.08 251.7 68.89 250.44C67.7 249.18 67.1 247.22 67.1 244.57C67.1 241.92 67.7 239.81 68.89 238.57C70.08 237.33 71.88 236.71 74.28 236.71C76.68 236.71 78.5 237.33 79.68 238.57C80.86 239.81 81.46 241.81 81.46 244.57C81.46 247.33 80.87 249.18 79.68 250.44C78.5 251.7 76.7 252.33 74.28 252.33ZM74.28 250.16C75.86 250.16 77.03 249.73 77.77 248.85C78.52 247.98 78.89 246.55 78.89 244.56C78.89 242.46 78.52 240.99 77.77 240.15C77.03 239.31 75.86 238.89 74.28 238.89C72.7 238.89 71.55 239.31 70.81 240.15C70.07 240.99 69.69 242.46 69.69 244.56C69.69 246.55 70.06 247.98 70.81 248.85C71.56 249.72 72.71 250.16 74.28 250.16Z" fill="white"/>
<path d="M88.66 252.33C86.7 252.33 85.12 252.08 83.93 251.58V249.32C84.6 249.57 85.33 249.77 86.11 249.93C86.89 250.09 87.66 250.16 88.43 250.16C89.64 250.16 90.54 250.02 91.15 249.74C91.75 249.46 92.06 248.89 92.06 248.05C92.06 247.53 91.93 247.12 91.68 246.8C91.43 246.49 91.01 246.22 90.43 245.99C89.85 245.76 89.05 245.52 88.03 245.27C86.4 244.85 85.25 244.31 84.59 243.66C83.93 243.01 83.6 242.11 83.6 240.97C83.6 239.64 84.09 238.59 85.06 237.84C86.03 237.09 87.48 236.71 89.41 236.71C90.29 236.71 91.12 236.77 91.89 236.9C92.67 237.03 93.27 237.17 93.71 237.32V239.58C92.52 239.13 91.2 238.9 89.76 238.9C88.63 238.9 87.75 239.05 87.13 239.35C86.5 239.65 86.19 240.19 86.19 240.97C86.19 241.42 86.3 241.79 86.52 242.08C86.74 242.36 87.12 242.61 87.66 242.81C88.2 243.01 88.95 243.24 89.91 243.49C91.15 243.8 92.11 244.18 92.79 244.61C93.47 245.04 93.95 245.54 94.22 246.12C94.49 246.7 94.63 247.34 94.63 248.06C94.63 249.39 94.14 250.44 93.15 251.2C92.16 251.96 90.66 252.34 88.66 252.34V252.33Z" fill="white"/>
<path d="M97.71 252.1V236.95H104.46C105.62 236.95 106.58 237.17 107.33 237.61C108.08 238.05 108.64 238.65 109 239.41C109.36 240.17 109.54 241.04 109.54 242.01C109.54 243.52 109.07 244.72 108.14 245.63C107.21 246.54 105.95 246.99 104.36 246.99H100.27V252.1H97.7H97.71ZM100.28 244.97H103.9C104.92 244.97 105.69 244.7 106.21 244.17C106.73 243.64 106.99 242.92 106.99 242.01C106.99 241.04 106.74 240.28 106.25 239.75C105.76 239.22 105.01 238.95 104.03 238.95H100.29V244.97H100.28Z" fill="white"/>
<path d="M112.18 252.1V236.95H122.74V238.95H114.74V243.54H121.87V245.52H114.74V250.13H122.74V252.11H112.18V252.1Z" fill="white"/>
<path d="M132.58 252.33C130.09 252.33 128.2 251.65 126.92 250.28C125.64 248.92 125 247.07 125 244.75C125 243.09 125.27 241.66 125.81 240.46C126.35 239.26 127.18 238.33 128.29 237.68C129.4 237.03 130.82 236.7 132.55 236.7C133.43 236.7 134.23 236.77 134.96 236.9C135.69 237.03 136.37 237.21 136.99 237.43V239.67C136.36 239.42 135.69 239.23 134.98 239.09C134.27 238.96 133.52 238.89 132.73 238.89C130.85 238.89 129.52 239.39 128.74 240.4C127.96 241.4 127.58 242.86 127.58 244.75C127.58 246.52 128 247.87 128.85 248.79C129.7 249.71 131.01 250.17 132.78 250.17C133.5 250.17 134.23 250.11 134.96 249.99C135.69 249.87 136.38 249.69 137.02 249.44V251.7C136.39 251.9 135.71 252.06 134.98 252.17C134.25 252.28 133.45 252.33 132.57 252.33H132.58Z" fill="white"/>
<path d="M144.04 252.1V238.95H139.19V236.95H151.42V238.95H146.6V252.1H144.03H144.04Z" fill="white"/>
<path d="M151.62 252.1L157.41 236.95H160.28L166.02 252.1H163.38L161.87 248.19H155.78L154.27 252.1H151.61H151.62ZM156.18 246.22H161.45L158.81 239.28L156.17 246.22H156.18Z" fill="white"/>
<path d="M169.12 252.1V236.95H171.38L179.29 248.1V236.95H181.83V252.1H179.57L171.69 240.97V252.1H169.12Z" fill="white"/>
<path d="M185.41 252.1V236.95H191.55C193.79 236.95 195.45 237.54 196.54 238.73C197.62 239.91 198.16 241.88 198.16 244.62C198.16 247.21 197.63 249.1 196.56 250.3C195.49 251.5 193.82 252.1 191.55 252.1H185.41ZM187.98 250.12H191.16C192.15 250.12 192.97 249.98 193.63 249.69C194.29 249.4 194.78 248.85 195.11 248.05C195.44 247.25 195.6 246.1 195.6 244.61C195.6 243.12 195.45 241.97 195.15 241.15C194.85 240.33 194.38 239.76 193.73 239.43C193.08 239.1 192.22 238.94 191.15 238.94H187.97V250.12H187.98Z" fill="white"/>
<path d="M207.97 252.33C205.57 252.33 203.77 251.7 202.58 250.44C201.39 249.18 200.79 247.22 200.79 244.57C200.79 241.92 201.39 239.81 202.58 238.57C203.77 237.33 205.57 236.71 207.97 236.71C210.37 236.71 212.19 237.33 213.37 238.57C214.55 239.81 215.15 241.81 215.15 244.57C215.15 247.33 214.56 249.18 213.37 250.44C212.19 251.7 210.39 252.33 207.97 252.33ZM207.97 250.16C209.55 250.16 210.72 249.73 211.46 248.85C212.21 247.98 212.58 246.55 212.58 244.56C212.58 242.46 212.21 240.99 211.46 240.15C210.72 239.31 209.55 238.89 207.97 238.89C206.39 238.89 205.24 239.31 204.5 240.15C203.76 240.99 203.38 242.46 203.38 244.56C203.38 246.55 203.75 247.98 204.5 248.85C205.25 249.72 206.4 250.16 207.97 250.16Z" fill="white"/>
<path d="M230.93 252.33C228.53 252.33 226.73 251.7 225.54 250.44C224.35 249.18 223.75 247.22 223.75 244.57C223.75 241.92 224.35 239.81 225.54 238.57C226.73 237.33 228.53 236.71 230.93 236.71C233.33 236.71 235.15 237.33 236.33 238.57C237.51 239.81 238.11 241.81 238.11 244.57C238.11 247.33 237.52 249.18 236.33 250.44C235.15 251.7 233.35 252.33 230.93 252.33ZM230.93 250.16C232.51 250.16 233.68 249.73 234.42 248.85C235.17 247.98 235.54 246.55 235.54 244.56C235.54 242.46 235.17 240.99 234.42 240.15C233.68 239.31 232.51 238.89 230.93 238.89C229.35 238.89 228.2 239.31 227.46 240.15C226.72 240.99 226.34 242.46 226.34 244.56C226.34 246.55 226.71 247.98 227.46 248.85C228.21 249.72 229.36 250.16 230.93 250.16Z" fill="white"/>
<path d="M247.19 252.1V236.95H257.5V238.95H249.76V243.54H256.63V245.52H249.76V252.11H247.19V252.1Z" fill="white"/>
<path d="M266.58 252.33C264.49 252.33 262.87 251.83 261.72 250.82C260.57 249.82 259.99 248.37 259.99 246.47V236.94H262.55V246.38C262.55 247.65 262.9 248.6 263.6 249.23C264.3 249.86 265.29 250.17 266.58 250.17C267.87 250.17 268.84 249.86 269.53 249.23C270.23 248.6 270.58 247.65 270.58 246.38V236.94H273.12V246.47C273.12 248.37 272.55 249.82 271.4 250.82C270.25 251.82 268.65 252.33 266.58 252.33Z" fill="white"/>
<path d="M280.48 252.1V238.95H275.63V236.95H287.86V238.95H283.04V252.1H280.47H280.48Z" fill="white"/>
<path d="M296.98 252.33C294.89 252.33 293.27 251.83 292.12 250.82C290.97 249.82 290.39 248.37 290.39 246.47V236.94H292.95V246.38C292.95 247.65 293.3 248.6 294 249.23C294.7 249.86 295.69 250.17 296.98 250.17C298.27 250.17 299.24 249.86 299.93 249.23C300.63 248.6 300.98 247.65 300.98 246.38V236.94H303.52V246.47C303.52 248.37 302.95 249.82 301.8 250.82C300.65 251.82 299.05 252.33 296.98 252.33Z" fill="white"/>
<path d="M306.95 252.1V236.95H313.91C315.6 236.95 316.84 237.39 317.62 238.26C318.4 239.13 318.78 240.31 318.78 241.8C318.78 242.87 318.51 243.78 317.98 244.53C317.45 245.28 316.68 245.81 315.67 246.11C315.95 246.31 316.17 246.53 316.33 246.77C316.49 247.01 316.64 247.32 316.8 247.71L318.71 252.11H316.07L314.21 247.87C314.04 247.46 313.83 247.17 313.59 247C313.35 246.83 312.94 246.74 312.35 246.74H309.5V252.1H306.93H306.95ZM309.52 244.67H313.24C314.17 244.67 314.9 244.44 315.43 243.99C315.96 243.54 316.23 242.81 316.23 241.8C316.23 239.9 315.31 238.95 313.48 238.95H309.53V244.67H309.52Z" fill="white"/>
<path d="M328.25 252.33C325.85 252.33 324.05 251.7 322.86 250.44C321.67 249.18 321.07 247.22 321.07 244.57C321.07 241.92 321.67 239.81 322.86 238.57C324.05 237.33 325.85 236.71 328.25 236.71C330.65 236.71 332.47 237.33 333.65 238.57C334.83 239.81 335.43 241.81 335.43 244.57C335.43 247.33 334.84 249.18 333.65 250.44C332.47 251.7 330.67 252.33 328.25 252.33ZM328.25 250.16C329.83 250.16 331 249.73 331.74 248.85C332.49 247.98 332.86 246.55 332.86 244.56C332.86 242.46 332.49 240.99 331.74 240.15C331 239.31 329.83 238.89 328.25 238.89C326.67 238.89 325.52 239.31 324.78 240.15C324.04 240.99 323.66 242.46 323.66 244.56C323.66 246.55 324.03 247.98 324.78 248.85C325.53 249.72 326.68 250.16 328.25 250.16Z" fill="white"/>
</g>
<defs>
<clipPath id="clip0_54_197">
<rect width="335.42" height="252.33" fill="white"/>
</clipPath>
</defs>
</svg>
