<svg width="182" height="78" viewBox="0 0 182 78" fill="none" xmlns="http://www.w3.org/2000/svg">
<g clip-path="url(#clip0_50_70)">
<path d="M114.429 39.2301C114.281 38.3743 113.753 37.7935 113.062 37.3468C112.089 36.7213 111.35 35.9171 110.822 34.8895C110.339 33.9478 109.441 33.7244 108.467 33.6798C107.57 33.642 106.962 34.0303 106.531 34.8208C105.906 35.9583 105.357 37.1302 104.839 38.3159C103.372 41.677 101.753 44.9729 100.479 48.4165C100.435 48.5367 100.403 48.6673 100.203 48.7979C99.9719 48.4749 99.7614 48.1793 99.5439 47.8872C99.0675 47.248 98.6291 46.5778 98.056 46.0107C97.6245 45.5812 97.1689 45.509 96.6407 45.7736C95.9848 46.1035 95.3255 46.4369 94.6765 46.7806C91.7733 48.3202 89.1117 50.1864 86.785 52.5233C83.333 55.991 81.1582 60.0876 80.4919 64.9437C80.3124 66.2496 80.1985 67.559 80.3745 68.8753C80.6749 71.1264 81.6863 73.0544 83.1362 74.7762C83.6506 75.3879 84.1891 75.9825 84.8484 76.4464C85.8633 77.1613 86.9611 77.4087 88.1728 77.0341C88.7769 76.8485 89.3361 76.5667 89.8712 76.2333C90.8067 75.6491 91.7387 75.0614 92.6777 74.4772C93.199 74.1541 93.2128 74.1541 93.4613 74.6971C93.8894 75.6285 94.5763 76.2746 95.5429 76.6251C96.4577 76.9551 97.3725 77.2918 98.2873 77.6252C99.1193 77.9311 99.9719 77.9792 100.845 77.8486C101.515 77.7489 101.95 77.3984 102.164 76.7592C102.306 76.3261 102.344 75.8725 102.406 75.4257C102.699 73.3121 102.948 71.1917 103.386 69.0987C104.294 64.7547 105.74 60.579 107.425 56.4825C109.403 51.671 111.595 46.9558 113.684 42.1925C113.908 41.677 114.156 41.1718 114.295 40.6254C114.412 40.1649 114.512 39.7078 114.429 39.2232V39.2301ZM97.8903 55.5133C97.3104 57.1354 96.7373 58.761 96.1436 60.3797C95.6327 61.7785 95.1597 63.1841 94.8629 64.6447C94.7455 65.2255 94.4555 65.6723 93.9619 66.0056C93.5338 66.2978 93.1299 66.6242 92.7088 66.9267C92.2669 67.2497 91.7767 67.4697 91.2451 67.6003C90.5754 67.7652 89.9851 67.4388 90.0403 66.6242C90.1404 65.1568 90.5547 63.7924 91.2934 62.5208C92.336 60.7234 93.5821 59.0772 94.9595 57.5203C95.7052 56.6749 96.5578 55.9635 97.4071 55.2349C97.5797 55.0871 97.7523 54.9153 98.0388 54.8706C98.0629 55.125 97.9594 55.314 97.8903 55.5099V55.5133Z" fill="white"/>
<path d="M19.335 50.9149C20.3327 50.9596 21.3234 50.8221 22.3142 50.7294C23.0288 50.6606 23.7364 50.6194 24.4476 50.774C24.7755 50.8462 25.0517 50.9837 25.2933 51.2174C26.4877 52.3927 26.9676 53.8018 26.7363 55.4549C26.7363 55.4755 26.7328 55.4995 26.7259 55.5202C26.1115 57.2695 24.5822 59.5858 22.0518 59.3865C20.2982 59.249 18.5514 59.5617 16.8012 59.6202C16.3007 59.6374 16.0211 59.9363 15.8554 60.3763C15.5861 61.1048 15.3168 61.8334 15.0407 62.5586C13.8463 65.6826 12.5862 68.7791 11.1053 71.7828C10.3942 73.2296 9.65544 74.6627 8.72338 75.9859C8.21248 76.711 7.86382 76.8176 7.09401 76.388C6.48989 76.0512 5.89614 75.6938 5.30238 75.3398C4.23224 74.7074 3.10687 74.216 1.86067 74.0544C1.21513 73.972 0.804335 73.6214 0.52817 73.0543C-0.103559 71.7621 -0.148436 70.4493 0.341758 69.1021C1.20132 66.748 2.21968 64.4625 3.4072 62.2561C3.86632 61.4004 4.32199 60.5412 4.80528 59.6992C5.2506 58.9225 5.29203 58.1046 5.15049 57.2557C5.05038 56.6405 4.93646 56.0254 4.8398 55.4067C4.80183 55.173 4.77767 54.9359 4.77422 54.6988C4.7466 53.5475 5.10216 53.0148 6.17921 52.5577C6.45883 52.4408 6.73844 52.3274 7.01116 52.1934C7.78442 51.8119 8.34365 51.2242 8.62672 50.4166C9.31714 48.4646 9.98339 46.5056 10.6565 44.5467C10.8291 44.0449 10.8119 43.5294 10.7049 43.0139C10.4045 41.5567 10.1042 40.0996 9.80733 38.6424C9.76591 38.4327 9.72793 38.2197 9.70032 38.0066C9.60366 37.3192 9.86257 36.7934 10.4287 36.3948C11.1433 35.893 11.9304 35.5356 12.7623 35.2813C14.6506 34.697 16.5872 34.343 18.548 34.1128C21.0921 33.8172 23.6467 33.8172 26.2012 33.7725C26.7501 33.7622 27.2714 33.8928 27.7512 34.1815C28.3622 34.5527 28.9698 34.9342 29.6049 35.2503C30.8615 35.8793 31.5208 36.9034 31.6658 38.2609C31.7729 39.2713 31.7659 40.2851 31.5864 41.2921C31.4449 42.0825 31.1342 42.3644 30.3264 42.4159C29.9363 42.44 29.5463 42.4537 29.1562 42.4365C26.94 42.3403 24.7444 42.5774 22.5524 42.8421C22.1865 42.8867 21.8205 42.9177 21.4546 42.9658C21.1405 43.007 20.9472 43.1651 20.9161 43.5054C20.7297 45.5811 20.0979 47.5573 19.5525 49.554C19.4386 49.9698 19.2798 50.3719 19.2522 50.8084C19.2418 50.8771 19.2764 50.9115 19.3454 50.9149H19.335Z" fill="white"/>
<path d="M79.2526 55.8847C79.2043 57.3453 78.9384 58.8266 78.5449 60.2906C77.5231 64.0882 76.27 67.8033 74.7338 71.4256C74.2609 72.5391 73.8156 73.6629 73.4566 74.8177C73.0009 76.2817 72.0309 77.1993 70.5396 77.5739C69.9527 77.7217 69.3624 77.8592 68.7514 77.8798C68.0265 77.9073 67.3706 77.7114 66.8251 77.244C65.7895 76.3573 64.7746 75.45 63.7528 74.5496C63.1452 74.0135 63.1038 73.3639 63.411 72.6663C64.0359 71.2435 64.671 69.8275 65.2959 68.4047C66.5559 65.5419 67.809 62.6723 69.069 59.8095C69.3969 59.0637 69.5523 58.2904 69.4729 57.4794C69.3969 56.7164 69.0621 56.4965 68.3268 56.7473C67.4776 57.0395 66.7526 57.5 66.1796 58.2217C65.2924 59.3352 64.6262 60.5518 64.1705 61.8921C62.9312 65.5282 61.6747 69.1539 60.4561 72.7969C60.066 73.9585 59.4929 75.0067 58.7715 75.9896C58.2467 76.7044 57.6392 76.9106 56.7865 76.6254C56.4171 76.5017 56.0616 76.3333 55.7129 76.1649C53.9593 75.3022 52.468 74.1097 51.1804 72.6491C50.4658 71.838 50.307 70.9307 50.6798 69.9375C51.9502 66.5661 53.2585 63.2084 54.8119 59.9504C55.5438 58.4142 56.431 56.9501 56.9177 55.3039C57.3319 53.8983 57.7669 52.4961 58.2019 51.0939C58.6714 49.5886 59.2133 48.1108 59.9486 46.7087C60.4077 45.8357 60.7668 45.6433 61.7195 45.7876C63.1797 46.0076 64.5295 46.4921 65.7032 47.4132C66.2003 47.805 66.6353 48.2449 66.9874 48.7776C67.3429 49.3137 67.3499 49.3137 67.9643 49.0388C69.2278 48.4683 70.4878 47.8943 71.7478 47.3204C72.2829 47.0764 72.8317 46.9011 73.4358 46.9011C74.1642 46.9011 74.8098 47.1279 75.3379 47.6125C76.6532 48.8257 77.7509 50.2038 78.4552 51.8638C78.9937 53.1319 79.2388 54.4585 79.256 55.8916L79.2526 55.8847Z" fill="white"/>
<path d="M44.1623 52.1144C44.7319 50.9769 45.305 49.8393 45.878 48.7052C46.0334 48.3959 46.2025 48.0935 46.4235 47.8254C47.2727 46.7944 48.4843 46.6157 49.6097 47.3408C50.1034 47.657 50.4762 48.1072 50.9077 48.4921C51.8432 49.3238 52.7062 50.2346 53.7211 50.9838C54.4254 51.5061 54.5841 52.1076 54.2804 52.9324C54.0422 53.5785 53.7418 54.204 53.4484 54.8295C51.0837 59.878 48.9745 65.0228 47.4832 70.4013C46.9654 72.2709 46.565 74.1714 46.1128 76.0581C46.0127 76.4774 45.9056 76.8967 45.733 77.2919C45.519 77.7799 45.16 78.0239 44.6111 77.9965C44.259 77.9793 43.9242 77.9105 43.5962 77.7903C42.2568 77.2954 40.9209 76.7902 39.5745 76.3125C38.5182 75.9379 37.8313 75.2436 37.493 74.1748C37.2168 73.3088 37.1719 73.3053 36.3986 73.8243C35.4459 74.4601 34.4966 75.1027 33.5438 75.7385C32.6601 76.3331 31.6693 76.608 30.6164 76.7008C29.3012 76.8177 28.2414 76.3503 27.4129 75.3433C26.1322 73.7899 25.3658 72.0097 25.0517 70.0267C24.7341 68.0299 25.1242 66.1226 25.7559 64.2427C27.6373 58.6339 29.8466 53.1558 32.4288 47.8288C32.5807 47.5195 32.7291 47.2034 32.9121 46.9147C33.4644 46.0521 34.3067 45.7428 35.2733 46.0761C36.6852 46.5573 37.9314 47.3271 39.0257 48.3375C39.3916 48.6743 39.723 49.0455 40.082 49.3891C40.7759 50.049 40.9105 50.7913 40.5446 51.6814C39.3709 54.5339 38.2317 57.4001 37.0683 60.2595C36.6058 61.3971 36.1225 62.5312 35.6426 63.6619C35.4217 64.1842 35.2664 64.7204 35.2388 65.284C35.1939 66.2394 35.867 66.7652 36.7577 66.3872C38.1316 65.8029 39.2466 64.9472 39.7368 63.4316C40.9105 59.7955 42.3017 56.242 43.8896 52.764C43.969 52.5887 44.0139 52.3997 44.0726 52.2141C44.1037 52.1797 44.1313 52.1454 44.1623 52.1144Z" fill="white"/>
<path d="M133.101 49.5061C132.401 48.6813 131.621 47.9287 130.688 47.3582C127.765 45.5745 124.716 45.0865 121.537 46.6124C115.054 49.7261 110.742 54.7025 108.713 61.6C108.184 63.4008 107.729 65.2223 107.698 66.92C107.715 67.6143 107.718 68.1092 107.801 68.6006C108.233 71.1472 109.589 73.144 111.502 74.8142C113.404 76.4707 115.599 77.268 118.137 77.0515C119.562 76.9278 120.985 76.8178 122.393 76.5498C123.781 76.2817 125.141 75.9415 126.404 75.285C126.922 75.017 127.343 74.6596 127.551 74.1028C127.92 73.113 128.255 72.1095 128.641 71.1266C129.138 69.8619 127.768 68.0198 126.339 68.5181C126.218 68.5594 126.083 68.5697 125.956 68.5903C124.527 68.8412 123.118 69.2055 121.675 69.3601C120.546 69.4804 119.469 69.312 118.499 68.6865C117.802 68.2398 117.457 67.604 117.543 66.7688C117.65 65.7412 117.771 64.7137 117.892 63.6861C117.905 63.5589 117.93 63.4283 117.974 63.308C118.057 63.095 118.213 63.0709 118.385 63.2015C118.503 63.2943 118.603 63.4077 118.713 63.5142C119.338 64.1122 119.963 64.7102 120.581 65.3117C121.057 65.7756 121.61 65.9818 122.283 65.9578C123.218 65.9303 124.147 65.8684 125.055 65.6588C129.37 64.6518 132.459 62.2324 133.954 57.9811C134.313 56.957 134.52 55.9019 134.624 54.8228C134.81 52.8535 134.417 51.0389 133.105 49.4993L133.101 49.5061ZM126.688 53.9258C126.653 54.8331 126.532 55.7301 126.204 56.5858C125.862 57.4759 125.327 58.2183 124.533 58.7578C123.021 59.7854 121.264 60.0363 119.497 60.3387C119.473 60.0088 119.673 59.8438 119.801 59.6582C120.878 58.0705 121.934 56.4655 123.156 54.9809C123.853 54.1354 124.703 53.479 125.804 53.2178C126.439 53.0666 126.712 53.2694 126.684 53.9292L126.688 53.9258Z" fill="white"/>
<path d="M141.79 51.1043C142.74 50.252 143.692 49.41 144.731 48.6642C146.737 47.2208 148.957 46.3994 151.432 46.3238C154.439 46.2345 156.879 47.3445 158.45 49.9393C160.017 52.5237 160.041 55.2078 158.554 57.8712C158.215 58.4761 157.798 59.0294 157.311 59.5243C156.451 60.4041 155.419 60.6997 154.225 60.4075C153.296 60.1807 152.416 59.813 151.546 59.4281C150.938 59.1566 150.755 58.7235 150.945 58.0362C151.128 57.3729 151.366 56.7234 151.573 56.0635C151.636 55.8573 151.698 55.6477 151.715 55.4346C151.76 54.7541 151.328 54.4208 150.683 54.6441C149.992 54.8813 149.399 55.2731 148.946 55.8504C146.741 58.6857 145.18 61.8303 144.314 65.3152C144.262 65.5248 144.241 65.7413 144.227 65.9544C144.134 67.3463 145.239 68.3842 146.64 68.2227C147.1 68.1711 147.528 68.0199 147.932 67.8068C148.774 67.3635 149.613 66.9133 150.452 66.4631C152.219 65.518 153.942 66.4493 154.166 68.4564C154.449 71.0167 153.51 73.0066 151.373 74.4397C149.803 75.4948 148.146 76.3712 146.302 76.866C144.88 77.2475 143.444 77.33 141.991 77.0619C140.088 76.7114 138.5 75.8075 137.237 74.3504C134.89 71.6456 134.037 68.501 134.437 64.9715C134.724 62.4455 135.539 60.1051 136.781 57.8987C138.104 55.5583 139.636 53.3726 141.507 51.4308C141.583 51.3552 141.642 51.2658 141.711 51.1799C141.739 51.1593 141.766 51.1318 141.787 51.1043H141.79Z" fill="white"/>
<path d="M158.012 69.8034C158.05 68.3222 158.34 67.1709 158.636 66.023C159.458 62.8647 160.49 59.7819 161.864 56.816C162.485 55.4688 162.506 54.0666 162.306 52.6335C162.247 52.2074 162.209 51.7778 162.178 51.3482C162.113 50.4512 162.482 49.7604 163.21 49.2449C163.676 48.915 164.187 48.6847 164.743 48.5576C165.396 48.4098 165.782 48.0146 166.034 47.4097C166.904 45.3408 167.805 43.2891 168.678 41.2236C169.079 40.275 169.669 39.4537 170.349 38.6976C170.891 38.0927 171.478 37.9518 172.22 38.2921C173.929 39.0756 175.628 39.8936 177.326 40.7012C177.502 40.7837 177.661 40.9005 177.823 41.0071C178.33 41.3439 178.52 41.8044 178.368 42.4024C178.268 42.801 178.127 43.186 177.94 43.5502C177.495 44.4129 177.05 45.2755 176.604 46.1381C176.525 46.2928 176.446 46.444 176.373 46.6021C176.283 46.798 176.377 46.8873 176.57 46.8942C176.787 46.9011 177.001 46.9079 177.219 46.9011C177.958 46.8804 178.517 47.176 178.89 47.8152C179.214 48.3754 179.556 48.9253 179.874 49.4889C180.277 50.2175 180.236 50.9461 179.777 51.63C179.066 52.6851 178.33 53.7264 177.602 54.7712C177.35 55.1286 176.991 55.3073 176.556 55.3417C175.565 55.4207 174.571 55.5307 173.58 55.5788C172.859 55.6132 172.358 55.919 172.02 56.5514C170.353 59.6376 169.245 62.9059 168.723 66.3736C168.654 66.841 168.623 67.3152 168.547 67.7861C168.364 68.9236 168.634 69.9753 169.182 70.9582C169.569 71.6558 170.011 72.3225 170.422 73.0064C170.853 73.7213 170.798 74.0581 170.121 74.5358C169.29 75.12 168.458 75.7043 167.601 76.2542C165.855 77.3745 163.977 77.2611 162.361 75.9517C161.239 75.0444 160.2 74.0478 159.247 72.9686C158.374 71.9823 157.977 70.831 158.022 69.8069L158.012 69.8034Z" fill="white"/>
<path d="M128.624 7.56787C130.395 7.57818 131.814 8.04558 133.077 8.96318C136.626 11.5339 136.301 16.6168 132.432 18.6823C129.812 20.0776 127.154 20.0191 124.64 18.4589C121.651 16.603 120.885 12.637 123.28 9.94952C124.765 8.28271 126.66 7.6263 128.628 7.57131L128.624 7.56787Z" fill="white"/>
<path d="M160.57 20.0703C162.009 20.0909 163.683 20.6786 165.057 22.0155C167.408 24.3044 167.384 27.6174 165.123 29.9853C162.589 32.6419 157.656 32.745 154.915 29.975C152.64 27.6758 152.702 24.1394 155.084 21.9502C156.482 20.6614 158.17 20.0222 160.573 20.0737L160.57 20.0703Z" fill="white"/>
<path d="M138.248 19.3455C138.314 17.2869 139.322 15.7472 140.996 14.6303C143.582 12.9016 147.348 13.1319 149.723 15.1355C152.709 17.6546 152.385 22.1017 149.05 24.2291C147.921 24.9508 146.627 25.2154 145.346 25.511C144.397 25.3323 143.42 25.3013 142.488 25.0023C141.538 24.6965 140.668 24.205 140.016 23.5177C138.929 22.3801 138.173 21.0192 138.248 19.3455Z" fill="white"/>
<path d="M145.401 39.2028C144.276 39.2234 142.629 38.5635 141.29 37.3401C140.368 36.4981 139.76 35.3708 139.581 34.0786C139.322 32.1953 139.885 30.5835 141.248 29.2638C142.802 27.7653 144.687 27.1605 146.827 27.3083C147.897 27.3804 148.929 27.6244 149.858 28.1709C151.501 29.1366 152.657 30.4907 152.965 32.4084C153.303 34.5288 152.54 36.2712 150.897 37.6184C149.523 38.7457 147.918 39.2509 145.401 39.2028Z" fill="white"/>
<path d="M175.117 37.3711C173.449 37.3711 171.809 36.8109 170.429 35.5668C167.881 33.2779 167.888 29.525 170.442 27.243C173.125 24.8476 178.023 24.6139 180.85 27.9751C182.549 29.9924 182.293 33.3879 180.574 35.1509C179.124 36.639 177.385 37.3986 175.12 37.3676L175.117 37.3711Z" fill="white"/>
<path d="M133.091 22.4281C136.381 24.9163 136.163 29.5661 132.656 31.7347C131.948 32.1712 131.179 32.4427 130.381 32.6523C129.901 32.7795 129.422 32.9307 128.931 32.9823C128.479 33.0304 128.037 32.8379 127.578 32.7932C124.841 32.5389 122.49 30.4666 121.993 27.8753C121.668 26.1844 122.11 24.6654 123.218 23.356C124.337 22.0328 125.804 21.3077 127.502 21.0362C128.452 20.885 129.401 20.9331 130.34 21.1393C130.823 21.2458 131.293 21.373 131.71 21.6651C131.969 21.8473 132.263 21.995 132.584 22.0569C132.584 22.1394 132.625 22.1806 132.708 22.1772L132.718 22.1841C132.805 22.3215 132.912 22.4349 133.095 22.4246L133.091 22.4281Z" fill="white"/>
<path d="M112.527 14.1834C108.105 14.1388 105.271 9.32391 107.366 5.57444C108.347 3.82171 109.962 2.95565 111.888 2.66697C113.338 2.45045 114.75 2.6979 116.003 3.49865C118.064 4.81492 119.117 6.71543 118.765 9.14176C118.416 11.5475 116.915 13.1146 114.591 13.8741C113.891 14.1044 113.162 14.2281 112.527 14.1834Z" fill="white"/>
<path d="M113.131 15.5339C114.657 15.5614 116.01 16.0459 117.17 17.0495C119.442 19.0084 119.49 21.6925 118.617 23.6308C117.791 25.4557 116.279 26.5486 114.343 26.9335C111.875 27.4215 109.783 26.6929 108.146 24.734C105.965 22.1289 107.097 18.3726 109.037 16.912C110.256 15.9944 111.612 15.5235 113.135 15.5339H113.131Z" fill="white"/>
<path d="M100.98 22.7134C100.397 23.0124 99.8062 23.3011 99.1711 23.4523C97.4968 23.8509 95.9227 23.5829 94.5004 22.6068C92.0356 20.9194 91.359 17.7026 92.947 15.2454C93.7962 13.9291 95.0182 13.1146 96.5544 12.8156C98.9467 12.3516 100.973 13.0081 102.499 14.9395C104.284 17.1974 103.856 20.4967 101.581 22.2735C101.432 22.3869 101.266 22.4762 101.108 22.5759C101.028 22.5828 100.983 22.6275 100.98 22.7065V22.7134Z" fill="white"/>
<path d="M96.7926 0C100.714 0 103.358 2.88685 102.948 6.20673C102.678 8.38905 100.724 10.403 98.5013 10.7982C97.6625 10.9494 96.8236 10.9529 95.9813 10.8051C92.5362 10.1968 89.954 5.85275 92.4533 2.41258C93.627 0.800758 95.3013 0.0962284 96.7926 0Z" fill="white"/>
<path d="M89.3154 17.3145C89.343 19.2597 88.1037 20.9608 86.1015 21.7238C83.1155 22.8614 79.8257 21.0468 79.3355 17.9503C79.0697 16.2697 79.66 14.8503 80.9545 13.7472C82.7565 12.2075 85.4836 12.1353 87.3892 13.5444C88.6146 14.4482 89.2947 15.7817 89.3154 17.3145Z" fill="white"/>
<path d="M83.9578 9.94226C82.028 9.89415 80.554 9.04527 79.5736 7.39221C78.6243 5.79069 78.8625 3.55682 80.0983 2.12714C81.8554 0.089159 85.38 -0.165159 87.3719 1.63225C88.7527 2.87635 89.3016 4.44006 88.8493 6.25121C88.3937 8.07268 87.1682 9.21711 85.3731 9.76355C84.914 9.90446 84.4376 9.93882 83.9578 9.9457V9.94226Z" fill="white"/>
<path d="M72.1724 14.3965C73.3496 14.4171 74.3748 14.8055 75.2102 15.644C77.0709 17.5102 76.736 20.3798 74.4611 21.8817C72.9284 22.8955 71.3335 22.8096 69.7939 21.9332C68.2923 21.0775 67.6709 19.6925 67.8193 18.0085C67.9505 16.5066 68.8204 15.4756 70.1564 14.8192C70.7743 14.5168 71.4716 14.3827 72.1724 14.3999V14.3965Z" fill="white"/>
<path d="M71.5269 11.4787C70.3324 11.4616 69.2761 11.0801 68.4131 10.245C66.3695 8.27572 66.9736 4.86992 69.5833 3.72549C71.1644 3.03127 72.6971 3.16186 74.1401 4.15508C76.3494 5.67755 76.0525 8.64345 74.8512 9.98721C74.0262 10.9151 72.7696 11.4925 71.5269 11.4787Z" fill="white"/>
<path d="M63.1003 16.6508C60.9255 16.6577 59.1305 14.9565 59.1201 12.8841C59.1098 11.0008 60.532 9.42335 62.4859 9.14498C64.3569 8.87691 66.1761 9.88731 66.7837 11.5335C67.7192 14.0698 65.8689 16.6439 63.1003 16.6508Z" fill="white"/>
<path d="M68.2163 24.6206C68.2094 26.7376 66.618 28.3942 64.495 28.4973C62.3582 28.6038 60.5873 27.1363 60.3215 25.0743C60.0971 23.3147 61.4296 21.6444 62.8553 21.2698C63.5388 21.0877 64.2085 20.8505 64.9162 21.0224C66.7492 21.4657 68.1611 22.5345 68.2163 24.6206Z" fill="white"/>
<path d="M56.5553 15.1802C58.8716 15.1939 60.4699 17.28 59.7553 19.4074C59.3135 20.7167 58.3193 21.4453 56.9764 21.6206C55.6025 21.7993 54.4529 21.301 53.6693 20.1462C52.9513 19.0946 52.8995 17.9571 53.5416 16.8539C54.2044 15.7197 55.2469 15.1905 56.5587 15.1802H56.5553Z" fill="white"/>
<path d="M52.7511 21.3178C53.0411 21.6374 53.4381 21.8161 53.7729 22.0808C54.4253 22.5963 54.7015 23.2699 54.6842 24.0466C54.6601 25.2872 54.1008 26.2289 52.934 26.7547C51.712 27.308 50.0999 27.1396 49.2438 26.2289C48.4567 25.3903 48.0839 24.3456 48.5119 23.1943C48.8917 22.1735 49.5752 21.4999 50.7144 21.2491C51.3047 21.1185 51.8535 21.1425 52.4266 21.1803C52.4922 21.3212 52.5716 21.4346 52.7476 21.3178H52.7511Z" fill="white"/>
<path d="M57.6841 31.5319C56.11 31.4426 55.0018 30.3875 54.9811 28.8238C54.9604 27.4525 56.3274 26.2153 57.7739 26.2222C59.2893 26.2325 60.57 27.4663 60.5148 28.896C60.4388 30.7518 59.0718 31.4666 57.6875 31.5319H57.6841Z" fill="white"/>
<path d="M54.9777 32.8312C54.9915 33.9413 54.018 34.8726 52.827 34.8864C51.643 34.9001 50.6661 33.9963 50.6488 32.8656C50.6315 31.7212 51.567 30.8311 52.7891 30.8311C54.0146 30.8311 54.9604 31.6971 54.9742 32.8312H54.9777Z" fill="white"/>
<path d="M47.7007 31.0063C46.4614 30.996 45.5708 30.1402 45.5811 28.9649C45.5915 27.7964 46.5477 26.9303 47.8112 26.9475C48.9469 26.9647 49.8928 27.9132 49.8686 29.0061C49.841 30.1952 48.9504 31.0166 47.7042 31.0063H47.7007Z" fill="white"/>
<path d="M45.1703 31.0198C46.2301 31.0026 47.1138 31.8412 47.1138 32.8584C47.1138 33.862 46.2957 34.6559 45.229 34.6799C44.152 34.704 43.2855 33.8895 43.2786 32.8619C43.2682 31.6453 44.3591 31.0232 45.1703 31.0198Z" fill="white"/>
<path d="M49.2369 38.3848C48.3807 38.3813 47.6524 37.883 47.3934 37.1235C47.1587 36.4396 47.3969 35.7076 47.9561 35.2092C48.5154 34.7075 49.8341 34.7109 50.414 35.1336C51.0595 35.6045 51.3254 36.4224 51.0561 37.1957C50.8041 37.9174 50.0792 38.3916 49.2369 38.3882V38.3848Z" fill="white"/>
<path d="M42.2395 36.7113C41.4904 36.7182 40.9554 36.2199 40.9416 35.4947C40.9243 34.7902 41.4663 34.2678 42.2188 34.2541C42.9714 34.2438 43.5065 34.749 43.5134 35.4741C43.5203 36.1993 42.9955 36.7044 42.2395 36.7113Z" fill="white"/>
<path d="M40.0613 36.6563C40.7655 36.6632 41.3593 37.2302 41.3662 37.9038C41.3731 38.5774 40.7862 39.1411 40.0682 39.1479C39.3329 39.1548 38.7012 38.5568 38.7219 37.8763C38.7426 37.2199 39.3674 36.6494 40.0613 36.6563Z" fill="white"/>
<path d="M45.6778 39.419C45.0978 39.4122 44.6836 39.0135 44.6732 38.4602C44.6663 37.8794 45.1013 37.4326 45.6847 37.4326C46.2646 37.4326 46.6789 37.8691 46.672 38.4739C46.6651 39.0548 46.2715 39.4259 45.6778 39.419Z" fill="white"/>
<path d="M44.1623 39.9588C44.1727 40.3265 43.6652 40.8179 43.2648 40.8351C43.0093 40.8454 42.4984 40.2474 42.4743 39.9106C42.4467 39.5154 42.7263 39.2886 43.2683 39.2748C43.862 39.2577 44.152 39.481 44.1623 39.9622V39.9588Z" fill="white"/>
<path d="M38.4526 39.0859C38.4491 39.5223 38.0832 39.8282 37.5757 39.8213C37.0959 39.8144 36.7576 39.5258 36.7438 39.1099C36.73 38.67 37.0821 38.3504 37.5861 38.3401C38.0867 38.3298 38.4526 38.646 38.4491 39.0859H38.4526Z" fill="white"/>
<path d="M35.9982 37.8418C36.2156 37.9655 36.2812 38.127 36.371 38.2714C36.5229 38.5223 36.4469 38.7182 36.2191 38.8763C36.0776 38.9759 35.9429 39.0928 35.76 38.9484C35.5667 38.7938 35.5114 38.4913 35.6461 38.2508C35.6771 38.1958 35.7185 38.1442 35.7634 38.0961C35.8325 38.0171 35.9084 37.9415 36.0016 37.8418H35.9982Z" fill="white"/>
<path d="M41.7735 40.3164C41.9633 40.368 42.1636 40.4573 42.2257 40.6807C42.2706 40.8354 41.915 41.1138 41.7251 41.0828C41.5215 41.0519 41.3661 40.9316 41.3282 40.7254C41.3005 40.5639 41.5767 40.313 41.7735 40.3164Z" fill="white"/>
<path d="M40.0026 40.8732C40.3754 40.4436 40.5066 40.4023 40.7586 40.5982C40.9208 40.7254 40.9657 40.8594 40.8138 41.0313C40.4755 41.4093 40.3029 40.966 40.006 40.8732H40.0026Z" fill="white"/>
<path d="M34.9487 38.1306C34.7347 38.1031 34.5828 37.9828 34.5552 37.7766C34.5276 37.5738 34.676 37.4673 34.8728 37.4639C35.1006 37.4639 35.3423 37.5567 35.3561 37.7835C35.3664 37.9553 35.1593 38.0928 34.9487 38.1272V38.1306Z" fill="white"/>
<path d="M133.091 22.4281C132.908 22.4384 132.805 22.325 132.715 22.1875C132.887 22.1909 133.019 22.2665 133.091 22.4281Z" fill="white"/>
<path d="M52.7511 21.3181C52.575 21.435 52.4991 21.3181 52.4301 21.1807C52.5543 21.1807 52.6648 21.2219 52.7511 21.3181Z" fill="white"/>
<path d="M44.1623 52.1147C44.1313 52.1491 44.1037 52.1835 44.0726 52.2144C44.0657 52.1491 44.1002 52.1182 44.1623 52.1147Z" fill="white"/>
<path d="M100.98 22.7131C100.983 22.6341 101.028 22.5894 101.108 22.5825C101.066 22.6272 101.021 22.6684 100.98 22.7131Z" fill="white"/>
<path d="M19.3351 50.9151C19.266 50.9117 19.2315 50.8773 19.2419 50.8086C19.2729 50.843 19.304 50.8808 19.3351 50.9151Z" fill="white"/>
<path d="M141.79 51.1042C141.77 51.1317 141.742 51.1592 141.714 51.1798C141.707 51.1214 141.735 51.0973 141.79 51.1042Z" fill="white"/>
<path d="M132.704 22.1843C132.622 22.1877 132.58 22.1464 132.58 22.064C132.622 22.1052 132.663 22.143 132.704 22.1843Z" fill="white"/>
</g>
<defs>
<clipPath id="clip0_50_70">
<rect width="182" height="78" fill="white"/>
</clipPath>
</defs>
</svg>
