<svg width="121" height="79" viewBox="0 0 121 79" fill="none" xmlns="http://www.w3.org/2000/svg">
<path fill-rule="evenodd" clip-rule="evenodd" d="M96.93 0H77.07L86.99 17.73C85.17 20.92 83 24.7 81.03 28.13C79.18 31.35 77.59 34.79 76.8 36.18H96.97L107.14 18.32L96.93 0ZM81.95 29.2L82.19 28.79C84.02 25.61 86.02 22.12 87.75 19.09L93.53 29.29C93.53 29.29 93.57 29.38 93.59 29.43C93.62 29.5 93.65 29.56 93.68 29.63C93.73 29.75 93.76 29.88 93.8 30.01C94.01 30.84 93.92 31.83 93.53 32.77C93.19 33.59 92.65 34.3 91.96 34.85H78.71C79.53 33.42 80.67 31.43 81.95 29.2ZM98.59 27.29L97.46 26.7L96.33 27.29L96.55 26.04L95.64 25.15L96.9 24.97L97.46 23.83L98.02 24.97L99.28 25.15L98.37 26.04L98.59 27.29Z" fill="white"/>
<path fill-rule="evenodd" clip-rule="evenodd" d="M82.37 17.32L81.49 15.8L81.36 15.58L81 14.96L72.49 0H52.76L63.58 19.18C60.83 23.32 57.98 27.66 55.91 30.79C54.49 32.94 53.41 34.58 52.95 35.28L52.49 36.18H70.24H72.65L81.99 19.58C82.65 18.42 82.77 18.14 82.37 17.32ZM57.02 31.53C59.01 28.51 61.7 24.43 64.32 20.48L68.84 28.41V28.44C68.88 28.52 68.91 28.6 68.95 28.67C69.39 29.49 69.64 30.3 69.73 31.07C69.76 31.6 69.69 32.15 69.46 32.69C69.14 33.46 68.56 34.11 67.72 34.64H54.96C55.5 33.82 56.2 32.76 57.01 31.52L57.02 31.53Z" fill="white"/>
<path d="M58.66 17.43C56.94 14.51 50.18 3.3 48.18 0H28.61L11 25.33C12.29 25.33 13.51 25.34 14.65 25.35C15.83 25.35 16.94 25.37 17.98 25.37C27.63 25.37 31.16 24.74 36.11 17.29L37.3 15.52L38.21 17.11C38.64 17.86 39.07 18.6 39.5 19.34C35.86 24.79 32.22 30.7 28.57 36.17H43.97C44.23 36.17 44.54 36.17 44.87 36.17H45.04C45.04 36.17 45.01 36.17 45 36.17C46.49 36.17 48.35 36.17 48.35 36.17L58.61 20.29C59.44 19.04 59.44 18.75 58.66 17.41V17.43ZM35.08 16.61C30.57 23.39 27.63 24.13 17.98 24.13C16.96 24.13 15.88 24.13 14.73 24.11H14.66C14.24 24.11 13.81 24.11 13.37 24.11L29.2 1.32C31.64 5.59 34.11 9.92 36.61 14.32L35.07 16.6L35.08 16.61ZM34.79 28.82C36.6 26.09 38.41 23.37 40.23 20.66C41.75 23.27 43.32 25.96 44.82 28.77C45.39 29.84 45.95 31.4 45.37 32.78C45.1 33.42 44.6 33.98 43.88 34.45H31.05C32.3 32.58 33.54 30.7 34.79 28.83V28.82Z" fill="white"/>
<path fill-rule="evenodd" clip-rule="evenodd" d="M107.96 50.36C108.51 49.9 109.32 49.68 110.35 49.68C112.29 49.68 114.64 50.39 117.41 51.82L120.69 44.6C117.6 42.86 114.12 42 110.25 42C107.85 42 105.69 42.47 103.75 43.4C101.82 44.33 100.32 45.64 99.2599 47.34C98.1999 49.04 97.67 50.95 97.67 53.07C97.67 54.97 98.0999 56.72 98.9599 58.31C99.8099 59.91 101.19 61.46 103.09 62.99C104.64 64.29 105.59 65.13 105.95 65.51C106.31 65.89 106.59 66.27 106.78 66.66C106.97 67.04 107.07 67.45 107.07 67.89C107.07 68.82 106.76 69.54 106.15 70.03C105.54 70.54 104.62 70.79 103.43 70.79C102 70.79 100.41 70.5 98.6599 69.92C96.8999 69.33 95.6799 68.61 94.3199 67.75L92.5699 75.15C94.1499 76.31 96.51 77.63 98.09 78.02C99.68 78.42 101.36 78.62 103.14 78.62C107.4 78.62 110.72 77.61 113.1 75.61C115.48 73.6 116.66 70.79 116.66 67.18C116.66 65.17 116.2 63.38 115.28 61.83C114.36 60.27 112.94 58.78 111.04 57.37C109.51 56.21 108.49 55.3 107.94 54.61C107.4 53.92 107.13 53.17 107.13 52.37C107.13 51.5 107.41 50.83 107.97 50.37L107.96 50.36Z" fill="white"/>
<path fill-rule="evenodd" clip-rule="evenodd" d="M25.44 42H24.78C23.72 42 22.84 42.74 22.61 43.73C22.57 43.88 22.25 45.35 22.19 45.65L18.27 64.03C17.81 66.22 17.15 67.84 16.26 68.9C15.39 69.96 14.18 70.49 12.63 70.49C10.65 70.49 9.66 69.45 9.66 67.36C9.66 66.59 9.77 65.64 10 64.52L14.8 42H6.99C5.93 42 5.05 42.74 4.82 43.73C4.78 43.89 4.39 45.7 4.39 45.7L0.290001 64.77C0.100001 65.84 0 66.91 0 67.96C0 69.96 0.449995 71.78 1.37 73.41C2.28 75.04 3.58 76.31 5.25 77.21C6.93 78.11 8.87 78.56 11.07 78.56C15.74 78.56 19.44 77.46 22.16 75.24C24.88 73.03 26.72 69.61 27.69 64.99L32.57 42H25.44Z" fill="white"/>
<path fill-rule="evenodd" clip-rule="evenodd" d="M43.0499 49.95H53.2999C54.2399 49.89 55.0199 49.24 55.2799 48.37L56.5799 42H36.7399C35.6799 42 34.7999 42.74 34.5699 43.73C34.5299 43.89 34.1299 45.7 34.1299 45.7L27.2 78.63H48.8699L50.5699 70.58H38.6599L40.0799 63.66H51.17L52.9699 55.71H41.8799L43.06 49.97L43.0499 49.95Z" fill="white"/>
<path fill-rule="evenodd" clip-rule="evenodd" d="M85.95 42H85.29C84.47 42 83.75 42.45 83.37 43.12L82.19 45.68V45.7L71.96 68.01H71.76V42H60.65C59.59 42 58.71 42.74 58.48 43.73C58.46 43.83 58.31 44.52 58.19 45.05L51.12 78.62H59.8L62.62 65.16C62.94 63.58 63.65 59.3 64.77 52.34H64.97V78.62H74.21L86.24 52.34H86.44L86.07 53.95C85.11 57.42 84.21 61.06 83.38 64.87L80.46 78.63H89.22L97.01 42H85.95Z" fill="white"/>
</svg>
