<svg width="109" height="79" viewBox="0 0 109 79" fill="none" xmlns="http://www.w3.org/2000/svg">
<path d="M24.8273 39.5888C30.6074 39.5888 36.3835 39.5686 42.1637 39.6131C42.9095 39.6172 44.0972 39.1065 44.0809 40.6792C44.0566 42.864 43.5054 43.8976 42.111 43.9179C38.5562 43.9706 34.9973 43.9381 31.4424 43.9462C29.8454 43.9489 28.8982 44.7542 28.601 46.3621C28.3416 47.7807 28.1551 49.2197 27.8268 50.6222C27.5512 51.8017 27.8876 52.2719 29.1158 52.2476C31.337 52.203 33.5624 52.1908 35.7836 52.2598C36.5213 52.2841 37.7049 51.7126 37.7212 53.2893C37.7455 55.4417 37.2023 56.2848 35.6093 56.3051C33.3313 56.3334 31.0493 56.378 28.7753 56.2888C27.3444 56.2321 26.6635 56.7104 26.4649 58.1818C26.1244 60.7111 25.6582 63.2242 25.1516 65.7292C24.9205 66.8682 25.2772 67.2492 26.3919 67.2411C30.0035 67.2128 33.6151 67.2249 37.2266 67.2411C38.0211 67.2452 39.1885 67.079 38.9007 68.3842C38.6534 69.511 39.2614 71.3756 37.1375 71.3878C31.6937 71.4242 26.246 71.3878 20.8022 71.3999C19.3065 71.3999 19.4241 70.4474 19.5984 69.4624C20.8347 62.4662 22.0791 55.4701 23.3154 48.4739C23.5099 47.3795 23.6599 46.281 23.8626 45.1906C24.0247 44.3354 23.7288 43.9422 22.8371 43.9462C18.7796 43.9665 14.7262 43.9584 10.6687 43.9706C9.8986 43.9706 9.44867 44.3232 9.31491 45.1379C9.00685 47.0552 8.67042 48.9684 8.30156 50.8775C8.10294 51.899 8.43532 52.276 9.49731 52.2517C11.9983 52.199 14.4992 52.2071 16.9961 52.2517C17.7987 52.2638 18.9134 51.9031 18.9296 53.3785C18.9498 55.4174 18.3864 56.2929 16.8745 56.3132C14.3736 56.3496 11.8726 56.3861 9.37571 56.2888C7.86379 56.228 7.19498 56.7509 6.96393 58.2831C6.3924 62.069 5.60604 65.8224 5.03046 69.6083C4.81968 71.0067 4.22383 71.5864 2.85378 71.4161C2.74434 71.404 2.63085 71.4161 2.5214 71.4161C-0.271391 71.4283 -0.243017 71.4324 0.263658 68.6315C1.90123 59.6207 3.55097 50.61 5.10342 41.5831C5.36689 40.0509 5.98301 39.5523 7.49088 39.5686C13.267 39.6334 19.0471 39.5929 24.8273 39.5929V39.5888Z" fill="white"/>
<path d="M95.0971 78.9877C93.5406 78.8944 92.6853 78.5134 92.0003 76.8799C89.7912 71.6064 87.428 66.3978 85.1257 61.1649C84.4407 59.6043 84.2542 59.5638 83.2328 60.9338C80.975 63.9577 78.7456 67.0058 76.496 70.0378C75.6529 71.1727 72.4548 71.9266 71.2104 71.274C70.3348 70.816 71.0158 70.3053 71.2833 69.9324C73.1884 67.2693 79.9333 58.0113 81.5263 55.9684C82.2316 55.0604 82.2924 54.2295 81.8789 53.1999C80.3629 49.4424 78.8997 45.6606 77.4283 41.8869C76.646 39.8723 76.8 39.7386 78.8672 39.6008C80.6102 39.4832 81.6114 39.9737 82.1424 41.7936C82.8923 44.3757 84.9919 50.4031 85.5999 50.5125C86.3012 50.6382 94.8903 39.1914 101.611 30.6346C103.561 28.1539 103.423 27.327 107.95 27.6473C109.288 27.7405 108.619 28.4701 108.226 28.9727C105.822 32.0533 93.4879 47.7238 88.5832 53.7796C87.6793 54.8983 87.5942 55.8103 88.182 57.0912C91.1572 63.5442 94.0675 70.0256 96.9738 76.511C97.9142 78.9998 97.4318 78.9998 95.1052 78.9998L95.0971 78.9877Z" fill="white"/>
<path d="M59.1596 60.1396C59.8365 56.2199 61.9767 43.6382 62.4348 41.1494C62.7185 39.6253 64.0318 39.1267 66.2774 39.6131C67.7731 39.9374 67.0354 41.048 66.9097 41.7614C65.2884 51.1734 63.6184 60.5773 61.924 69.9731C61.7984 70.6663 61.9402 71.6715 60.862 71.8134C59.8487 71.9471 59.6014 71.0554 59.2366 70.3987C55.2278 63.1594 48.9694 51.1978 47.9155 50.5208C47.4899 52.8516 47.0764 54.9999 46.7116 57.1522C46.0063 61.311 45.3334 65.4779 44.6322 69.6367C44.5228 70.2731 44.5552 71.1365 43.7607 71.2783C42.5731 71.4891 41.3125 71.6634 40.1654 71.1405C39.6506 70.9054 39.8492 70.2447 39.9343 69.7623C41.5962 60.3017 43.2622 50.8411 44.9565 41.3845C45.0821 40.6751 45.0375 39.751 46.132 39.6212C47.1818 39.4996 47.5831 40.2252 48.0046 40.971C51.8148 47.7605 58.5192 59.6572 58.7867 60.1315C58.9083 60.1315 59.0299 60.1315 59.1515 60.1315L59.1596 60.1396Z" fill="white"/>
<path d="M55.4669 47.0066C54.7981 43.1923 54.2104 39.5929 53.5334 36.0097C52.1391 28.6325 50.3799 21.3526 47.2304 14.4902C46.6751 13.2823 46.0792 12.0825 45.4104 10.9354C44.92 10.0963 44.9159 9.45586 45.609 8.71003C48.033 6.11586 50.4042 3.46898 52.8119 0.858592C53.1362 0.505946 53.4281 -0.118278 53.955 0.0195377C54.5752 0.185727 54.49 0.919393 54.5954 1.43418C56.8937 12.654 57.3761 23.9833 56.7073 35.3936C56.5086 38.8268 56.306 42.26 55.9614 45.6811C55.9249 46.054 56.0384 46.4634 55.4588 47.0066H55.4669Z" fill="white"/>
<path d="M58.2921 43.4433C57.6152 40.0223 58.0367 36.6539 58.2718 33.2977C58.819 25.4422 61.0768 18.1501 65.8314 11.7376C67.1609 9.94602 68.7053 8.35303 70.1483 6.66682C70.6915 6.03448 71.1819 6.0507 71.5386 6.82895C73.0465 10.1082 74.5381 13.3955 76.0338 16.6828C76.3297 17.3354 76.2689 17.8745 75.5028 18.1542C68.3607 20.7808 65.114 26.8487 62.2969 33.2369C60.8255 36.5769 59.6176 40.0385 58.2921 43.4433Z" fill="white"/>
<path d="M53.7767 46.5931C53.2538 45.3284 52.735 44.0597 52.208 42.7951C49.399 36.107 46.2049 29.6499 41.1503 24.3034C39.2331 22.2767 37.1537 20.4324 34.6933 19.0908C33.7407 18.5719 33.5786 18.0369 34.1015 17.1046C35.131 15.2603 36.0795 13.3755 37.0686 11.5109C37.9563 9.8328 38.09 9.82469 39.3101 11.215C46.0023 18.8516 50.4529 27.6232 52.6904 37.5256C53.3592 40.4887 53.9672 43.4598 54.1982 46.4918L53.7767 46.5891V46.5931Z" fill="white"/>
<path d="M67.1205 71.412C64.729 71.412 64.652 71.2985 65.0654 68.9556C66.6746 59.8922 68.2676 50.8288 69.8728 41.7613C70.2133 39.8441 72.6858 38.7375 74.4004 39.7265C75.1584 40.1643 74.7693 40.8291 74.6761 41.3682C73.3384 49.2034 70.6348 64.3793 69.7593 69.2191C69.3621 71.4201 69.3539 71.416 67.1205 71.416V71.412Z" fill="white"/>
<path d="M43.7525 74.3509C29.9223 74.3509 16.0881 74.359 2.25784 74.3266C1.47959 74.3266 0.0892736 74.813 0.105487 73.601C0.117647 72.6728 1.4877 73.0376 2.25784 73.0336C29.8656 73.0133 57.4733 73.0133 85.081 73.0336C85.8836 73.0336 87.3144 72.6404 87.3063 73.7024C87.2982 74.809 85.8714 74.3266 85.081 74.3266C71.3035 74.359 57.53 74.3509 43.7525 74.3509Z" fill="white"/>
<path d="M39.7803 37.4201C38.471 37.339 37.6604 36.9904 36.8781 35.8149C35.3742 33.5612 35.2729 33.5369 33.2543 35.3893C31.8681 36.6621 30.5385 37.8538 28.4673 37.416C27.7214 37.2579 27.0526 37.185 27.9849 36.2973C30.0724 34.3152 32.1315 32.2966 34.2839 30.3793C35.4148 29.3741 37.1496 29.6821 38.0535 30.9144C39.2371 32.5195 40.4694 34.0963 41.5476 35.7703C42.2529 36.8648 42.3056 37.3714 41.2679 37.4079C41.049 37.416 40.2343 37.416 39.7762 37.416L39.7803 37.4201Z" fill="white"/>
</svg>
