<svg width="37" height="37" viewBox="0 0 37 37" fill="none" xmlns="http://www.w3.org/2000/svg">
<path d="M36.9998 17.0119V20.0428C36.9043 20.708 36.8526 21.3829 36.7053 22.0365C35.0677 29.2972 30.6913 34.0656 23.5917 36.332C22.431 36.7021 21.2235 36.8559 20.017 37.0011H16.9817C16.7086 36.9631 16.4355 36.9212 16.1614 36.8881C13.5397 36.5725 11.0701 35.769 8.86093 34.3344C2.55235 30.237 -0.425404 24.4197 0.048617 16.897C0.214427 14.2654 1.00739 11.8003 2.30558 9.50964C6.2938 2.47584 14.0664 -1.23877 21.9989 0.373101C29.2731 1.85057 34.0221 6.31609 36.3083 13.3723C36.6916 14.5537 36.8516 15.7838 36.9998 17.0129V17.0119ZM13.9035 17.4151C14.9374 17.4151 15.9722 17.4093 17.0061 17.419C17.285 17.4219 17.3914 17.3206 17.3894 17.0401C17.3816 15.4789 17.3826 13.9177 17.3884 12.3565C17.3884 12.1032 17.3085 11.9854 17.0373 11.9805C15.2339 11.9484 13.4353 11.8227 11.6456 11.6046C11.2418 11.5549 11.1569 11.7127 11.0857 12.0409C10.7307 13.6752 10.5483 15.3299 10.4342 16.9953C10.4127 17.307 10.5151 17.4258 10.837 17.421C11.8592 17.4073 12.8813 17.4161 13.9035 17.4161V17.4151ZM23.066 17.4151C24.0891 17.4151 25.1132 17.4161 26.1364 17.4151C26.5421 17.4151 26.5899 17.3567 26.5597 16.9496C26.5372 16.6506 26.5216 16.3506 26.4973 16.0506C26.3831 14.6608 26.1881 13.2827 25.8828 11.9211C25.8291 11.6825 25.7082 11.6075 25.4751 11.6348C23.658 11.8471 21.8341 11.9708 20.0043 11.9825C19.702 11.9844 19.6083 12.0993 19.6103 12.3896C19.6191 13.9284 19.621 15.4672 19.6093 17.0061C19.6074 17.3245 19.7234 17.4249 20.0326 17.421C21.0441 17.4073 22.0555 17.4161 23.0669 17.4161L23.066 17.4151ZM5.22189 17.4171C6.04021 17.4171 6.85853 17.4171 7.67685 17.4171C8.13136 17.4171 8.19476 17.3635 8.20744 16.9018C8.25816 15.1565 8.49419 13.4346 8.85703 11.7292C8.96431 11.2257 8.95846 11.2209 8.4425 11.1303C7.25745 10.9219 6.0841 10.6579 4.93708 10.2956C4.60059 10.1894 4.45038 10.2742 4.28652 10.5673C3.15902 12.5922 2.50455 14.7582 2.27437 17.0587C2.24706 17.3343 2.36118 17.4219 2.6216 17.419C3.48771 17.4112 4.35382 17.4161 5.22091 17.4161L5.22189 17.4171ZM23.1216 19.6396C22.0857 19.6396 21.0499 19.6464 20.0141 19.6347C19.7205 19.6318 19.6074 19.7302 19.6093 20.0311C19.6191 21.5339 19.6191 23.0377 19.6093 24.5405C19.6074 24.8375 19.7215 24.9554 20.0092 24.9563C20.2618 24.9563 20.5135 24.9894 20.7661 24.9943C22.2593 25.0226 23.7448 25.1579 25.2283 25.3157C25.8028 25.3771 25.794 25.3917 25.9189 24.8346C26.2749 23.2471 26.4456 21.6371 26.5597 20.0175C26.5802 19.7243 26.4699 19.6337 26.192 19.6367C25.1688 19.6454 24.1447 19.6396 23.1206 19.6396H23.1216ZM34.7243 19.922C34.7448 19.6269 34.5361 19.6396 34.3381 19.6396C32.642 19.6396 30.9458 19.6454 29.2487 19.6347C28.9181 19.6328 28.7971 19.7672 28.7884 20.0788C28.7415 21.8358 28.4987 23.5704 28.1212 25.2845C28.049 25.6137 28.1329 25.7404 28.4567 25.7939C29.7149 26.0053 30.9566 26.2916 32.1738 26.6705C32.4684 26.762 32.6078 26.6724 32.7463 26.4211C33.2799 25.4482 33.7217 24.4382 34.0504 23.3795C34.4005 22.2527 34.6249 21.0995 34.7253 19.923L34.7243 19.922ZM13.923 19.6396C12.8882 19.6396 11.8543 19.6415 10.8194 19.6376C10.5854 19.6376 10.4176 19.6698 10.4381 19.9688C10.5522 21.6459 10.7336 23.3143 11.1033 24.9583C11.1657 25.2359 11.272 25.3313 11.5627 25.2982C13.3788 25.0888 15.2046 25.0099 17.0295 24.9437C17.3202 24.933 17.3933 24.8005 17.3914 24.5366C17.3845 23.0474 17.3797 21.5573 17.3943 20.0681C17.3972 19.7341 17.2821 19.6279 16.9544 19.6337C15.9439 19.6493 14.9335 19.6396 13.923 19.6396ZM31.7934 17.4151C32.6478 17.4151 33.5032 17.4073 34.3576 17.419C34.6678 17.4229 34.7604 17.3041 34.7175 17.0041C34.6336 16.41 34.5683 15.813 34.4464 15.2247C34.1109 13.6002 33.5412 12.0633 32.7298 10.6151C32.6312 10.4388 32.5454 10.2868 32.2879 10.3628C30.9946 10.7456 29.6759 11.0183 28.3475 11.2491C28.1232 11.2881 28.0715 11.3864 28.1183 11.5948C28.2031 11.9698 28.2821 12.3458 28.3446 12.7246C28.5699 14.0998 28.764 15.4789 28.7913 16.8756C28.801 17.3635 28.8625 17.4141 29.3365 17.4141C30.1548 17.4151 30.9741 17.4141 31.7924 17.4141L31.7934 17.4151ZM5.25797 19.6376C4.37918 19.6376 3.49941 19.6425 2.62062 19.6347C2.35728 19.6328 2.24804 19.7243 2.27632 19.998C2.50163 22.2254 3.11708 24.3311 4.18899 26.3043C4.34602 26.5935 4.50208 26.6627 4.81321 26.5682C6.02363 26.2001 7.2594 25.9361 8.50687 25.7345C8.8541 25.678 8.94481 25.5592 8.86775 25.2154C8.49127 23.5227 8.26011 21.8105 8.21134 20.0749C8.20256 19.7633 8.0826 19.625 7.75 19.6318C6.919 19.6484 6.088 19.6376 5.257 19.6376H5.25797ZM20.7339 9.71416V9.62261C21.4069 9.62261 22.0809 9.64696 22.7519 9.6158C23.4473 9.58268 24.1398 9.49211 24.8343 9.43367C25.0908 9.41224 25.1279 9.29245 25.045 9.07136C24.3505 7.22477 23.4863 5.47752 22.1013 4.03512C21.5044 3.41374 20.8305 2.89658 20.019 2.58005C19.6454 2.43396 19.6152 2.45928 19.6113 2.86931C19.6093 3.08553 19.6113 3.30174 19.6113 3.51796C19.6113 5.44051 19.6171 7.3621 19.6064 9.28466C19.6044 9.61482 19.7166 9.74728 20.0482 9.71806C20.2755 9.69761 20.5047 9.71416 20.7339 9.71416ZM17.3855 30.8321C17.3855 29.7744 17.3738 28.7157 17.3923 27.658C17.3982 27.3094 17.2841 27.1915 16.9339 27.2052C15.347 27.2685 13.7621 27.3474 12.1801 27.4964C11.9245 27.5207 11.8679 27.623 11.9518 27.848C12.5936 29.5718 13.3963 31.2051 14.6243 32.5998C15.2758 33.34 16.022 33.9585 16.9446 34.3344C17.3328 34.4922 17.3836 34.4542 17.3845 34.0422C17.3865 32.9719 17.3845 31.9025 17.3845 30.8321H17.3855ZM17.3855 6.08429C17.3855 5.02562 17.3855 3.96792 17.3855 2.90924C17.3855 2.44954 17.3475 2.42325 16.9125 2.60342C16.3965 2.81672 15.9274 3.10987 15.5041 3.47218C13.7455 4.97789 12.7526 6.96765 11.9518 9.07916C11.8679 9.30121 11.9606 9.38789 12.1791 9.40737C13.7728 9.54957 15.3675 9.683 16.969 9.71319C17.285 9.71904 17.3943 9.60995 17.3904 9.29634C17.3777 8.22598 17.3855 7.15562 17.3855 6.08526V6.08429ZM19.6132 30.8487C19.6132 31.9181 19.6113 32.9865 19.6132 34.0559C19.6132 34.4552 19.662 34.4912 20.0316 34.3441C20.886 34.0023 21.5922 33.4481 22.2106 32.779C23.4971 31.3863 24.329 29.7316 25.0011 27.9804C25.1269 27.6532 25.0391 27.5636 24.7192 27.5295C23.1411 27.36 21.5561 27.2899 19.9721 27.21C19.6717 27.1954 19.6074 27.3444 19.6093 27.6055C19.6171 28.6865 19.6122 29.7676 19.6122 30.8487H19.6132ZM12.5312 33.6556C12.2122 33.1959 11.944 32.8287 11.6973 32.4479C10.8419 31.1311 10.204 29.7092 9.69193 28.2297C9.61878 28.0184 9.56416 27.8207 9.25399 27.8801C8.21524 28.0768 7.17552 28.2638 6.15237 28.5326C5.78369 28.6291 5.77199 28.6661 6.02363 28.968C6.89071 30.0052 7.87289 30.9227 8.96822 31.7145C10.0431 32.4917 11.193 33.1345 12.5322 33.6565L12.5312 33.6556ZM24.4656 33.6254C24.5973 33.5962 24.6343 33.5932 24.6675 33.5796C27.1556 32.5599 29.2536 31.0084 30.9878 28.9583C31.1633 28.7498 31.0912 28.6963 30.8698 28.6359C29.871 28.3632 28.8566 28.1625 27.8413 27.96C27.5243 27.8967 27.379 27.9931 27.2824 28.2882C27.0015 29.1462 26.6484 29.976 26.2476 30.7854C25.7618 31.7671 25.1854 32.6933 24.4666 33.6244L24.4656 33.6254ZM24.606 3.45465C24.6997 3.60951 24.7319 3.67281 24.7728 3.7293C25.8984 5.25254 26.7089 6.93746 27.3107 8.72367C27.4141 9.03143 27.5584 9.10643 27.8608 9.04896C28.8527 8.85905 29.8456 8.674 30.8259 8.42661C31.135 8.3487 31.1419 8.27078 30.9478 8.04386C30.067 7.01635 29.0858 6.09695 27.9856 5.30806C26.9664 4.57663 25.8828 3.96012 24.606 3.45465ZM12.38 3.49068C12.2522 3.52185 12.1937 3.52769 12.143 3.54912C9.77581 4.55325 7.77048 6.04825 6.09288 7.99126C5.89 8.22598 6.00997 8.27176 6.2265 8.32825C7.1921 8.5805 8.1694 8.77918 9.14573 8.97981C9.47247 9.04702 9.6139 8.95839 9.71729 8.64283C10.1894 7.19848 10.8438 5.83593 11.6553 4.55033C11.8709 4.20945 12.1108 3.88416 12.379 3.49166L12.38 3.49068Z" fill="white"/>
</svg>
