<svg width="50" height="50" viewBox="0 0 50 50" fill="none" xmlns="http://www.w3.org/2000/svg">
<g clip-path="url(#clip0_54_350)">
<path d="M11.7062 0C20.5503 0 29.3958 0 38.2399 0C38.3017 0.0170985 38.3635 0.0434039 38.4267 0.0512955C45.0624 0.852295 50.0592 6.67631 49.9987 13.304C49.9277 21.0877 49.9829 28.8715 49.9816 36.6566C49.9816 37.2406 49.9658 37.8219 49.8961 38.4059C49.1148 44.9402 43.4906 49.9684 36.9035 49.9776C28.9565 49.9882 21.0094 50.0276 13.0636 49.9632C8.07863 49.9224 4.31949 47.5996 1.72308 43.3763C0.756328 41.8019 0.265719 40.0552 0.00134277 38.2389C0.00134277 29.395 0.00134277 20.5498 0.00134277 11.7059C0.0250183 11.5783 0.0500091 11.4521 0.0710539 11.3245C0.743175 7.13008 2.90291 3.93529 6.53446 1.73747C8.12598 0.774694 9.87665 0.267 11.7062 0ZM24.9737 41.1272C27.3465 41.1272 29.7207 41.1364 32.0935 41.1206C32.6604 41.1167 33.2351 41.0838 33.7902 40.9825C38.1689 40.1815 41.1151 36.65 41.1257 32.1886C41.1375 27.3774 41.1322 22.5648 41.1217 17.7535C41.1217 17.2195 41.0809 16.6776 40.9849 16.1542C40.1826 11.7756 36.6536 8.82941 32.1908 8.81889C27.3794 8.80837 22.5667 8.81231 17.7553 8.82152C17.2371 8.82152 16.7123 8.85703 16.202 8.94515C11.8707 9.6896 8.84151 13.2487 8.82178 17.6562C8.79942 22.5332 8.80599 27.4089 8.82178 32.2859C8.82704 33.9761 9.23873 35.5754 10.17 37.0038C11.9404 39.7225 14.4868 41.068 17.7053 41.1193C20.1268 41.1574 22.5496 41.1272 24.9711 41.1272H24.9737Z" fill="#8cc869"/>
<path d="M11.6694 24.9231C11.6694 22.4517 11.6642 19.9817 11.6694 17.5103C11.6773 14.2865 14.279 11.6757 17.4976 11.6705C22.4878 11.6639 27.4794 11.6626 32.4697 11.6705C35.658 11.6757 38.2688 14.2905 38.2741 17.484C38.282 22.4741 38.282 27.4656 38.2741 32.4557C38.2688 35.6479 35.6567 38.2666 32.471 38.2718C27.4636 38.2797 22.4576 38.281 17.4502 38.2718C14.2974 38.2666 11.68 35.6373 11.6708 32.4807C11.6629 29.9606 11.6694 27.4419 11.6694 24.9218V24.9231ZM32.2487 24.9679C32.2434 21.001 28.9302 17.6918 24.9685 17.6957C21.0015 17.701 17.6922 21.0128 17.6962 24.9744C17.7001 28.94 21.016 32.2531 24.9764 32.2479C28.9433 32.2426 32.254 28.9281 32.2487 24.9679ZM33.3799 15.1678C32.6617 15.1533 31.9725 15.8188 31.9475 16.5514C31.9225 17.284 32.6262 18.0009 33.368 17.9969C34.0954 17.993 34.7715 17.3169 34.7767 16.5883C34.782 15.8649 34.1112 15.1822 33.3812 15.1678H33.3799Z" fill="#8cc869"/>
<path d="M29.3984 24.9863C29.3958 27.4537 27.4439 29.3977 24.9698 29.3977C22.4799 29.3977 20.5398 27.4392 20.5464 24.9323C20.553 22.4741 22.5154 20.542 25 20.5459C27.4623 20.5499 29.401 22.507 29.3984 24.9863Z" fill="#8cc869"/>
</g>
<defs>
<clipPath id="clip0_54_350">
<rect width="50" height="50" fill="#8cc869"/>
</clipPath>
</defs>
</svg>
