<svg width="50" height="50" viewBox="0 0 50 50" fill="none" xmlns="http://www.w3.org/2000/svg">
<g clip-path="url(#clip0_54_347)">
<path d="M50 5.75675V44.2028C49.9609 44.3606 49.9205 44.517 49.8814 44.6748C49.0679 47.9286 46.4268 49.9961 43.0687 49.9974C30.9699 49.9987 18.8711 50.0013 6.77226 49.9948C3.04393 49.9935 0.00391083 46.9522 0.00260722 43.2238C-0.00260722 31.0611 0.00260722 18.8971 0 6.73446C0 5.17794 0.50189 3.79872 1.44831 2.57854C2.55508 1.14979 4.0451 0.350671 5.79586 0H44.242C45.3618 0.235954 46.4099 0.630948 47.3302 1.3349C48.802 2.45991 49.6402 3.96298 49.9987 5.75805L50 5.75675ZM20.0808 30.1069C20.0808 33.1639 20.0782 36.2195 20.0821 39.2765C20.0821 40.1955 20.438 40.5501 21.3518 40.554C22.6528 40.5592 23.9526 40.5579 25.2536 40.554C26.2547 40.5527 26.5559 40.2503 26.5559 39.2413C26.5572 36.1035 26.5454 32.9657 26.5624 29.8279C26.5689 28.6403 26.8335 27.5023 27.4892 26.4907C28.2323 25.3435 29.326 24.8742 30.6622 24.9824C32.0727 25.0971 33.0061 25.8519 33.4559 27.1972C33.7153 27.9755 33.8274 28.7772 33.8274 29.5946C33.8313 32.8458 33.8274 36.097 33.83 39.3495C33.83 40.2047 34.1142 40.4954 34.9694 40.5006C36.3838 40.5097 37.7982 40.5071 39.2126 40.5032C40.189 40.4993 40.4876 40.1995 40.4902 39.2152C40.5006 35.3943 40.511 31.5735 40.3924 27.7552C40.3442 26.2234 40.073 24.7191 39.4512 23.2981C38.6051 21.3623 37.1542 20.1525 35.101 19.6558C34.0933 19.4121 33.07 19.4029 32.0467 19.4512C30.0052 19.5476 28.2349 20.2203 26.9704 21.9202C26.9417 21.9593 26.9117 21.9984 26.8792 22.0349C26.8257 22.0936 26.7736 22.1718 26.681 22.1418C26.5898 22.1119 26.5793 22.0193 26.5767 21.9385C26.5689 21.5969 26.5676 21.2554 26.5637 20.9151C26.5533 20.0222 26.2808 19.7432 25.4009 19.7406C24.0673 19.7367 22.735 19.738 21.4014 19.7406C20.378 19.7406 20.0795 20.043 20.0795 21.0859C20.0782 24.0933 20.0795 27.1008 20.0795 30.1095L20.0808 30.1069ZM16.9965 30.1525C16.9965 27.0786 16.9991 24.0047 16.9952 20.9308C16.9952 20.0782 16.6588 19.7419 15.8167 19.738C14.5001 19.7315 13.1821 19.7341 11.8642 19.7367C10.8656 19.738 10.5175 20.0834 10.5175 21.0846C10.5162 27.1177 10.5162 33.1521 10.5175 39.1852C10.5175 40.1656 10.8969 40.5501 11.8707 40.554C13.1391 40.5592 14.4075 40.5592 15.6759 40.554C16.6393 40.5501 16.9939 40.1929 16.9952 39.227C16.9978 36.2026 16.9952 33.1769 16.9952 30.1525H16.9965ZM17.9638 13.5993C17.9612 11.2997 16.0592 9.40295 13.7622 9.40946C11.4653 9.41729 9.59588 11.3088 9.59719 13.6253C9.59719 15.9601 11.4483 17.823 13.7648 17.823C16.1022 17.823 17.9677 15.9458 17.9651 13.5993H17.9638Z" fill="#8cc869"/>
</g>
<defs>
<clipPath id="clip0_54_347">
<rect width="50" height="50" fill="#8cc869"/>
</clipPath>
</defs>
</svg>
