<svg width="62" height="62" viewBox="0 0 62 62" fill="none" xmlns="http://www.w3.org/2000/svg">
<g clip-path="url(#clip0_32_48)">
<path d="M52.0836 16.5515C52.042 16.7747 51.0198 22.1482 47.5431 25.1386C47.5327 25.149 47.5171 25.1594 47.5015 25.1698C46.1887 26.1874 44.6267 27.1011 42.603 27.1011C41.3887 27.1011 40.0032 26.774 38.405 25.9382L39.339 24.147C42.4058 25.7461 44.2583 25.123 46.251 23.5915C48.1813 21.9197 49.2399 19.2304 49.7381 17.595C48.8403 17.5742 47.6105 17.3458 46.0693 16.6138C42.9558 15.1237 41.1812 15.9804 40.8594 16.1673C38.6229 17.5119 37.9743 19.4952 37.8082 20.8295C37.0506 21.2033 36.3604 21.5927 35.7429 21.9872C35.6858 20.5647 35.9349 16.7695 39.832 14.428C40.5118 14.0334 43.0077 12.912 46.9359 14.7914C49.2658 15.9025 50.4853 15.5235 50.6358 15.4716C51.6217 15.1289 52.2081 15.8921 52.0784 16.5618L52.0836 16.5515Z" fill="white"/>
<path d="M47.0553 20.3932L46.0486 20.5075C37.4605 21.4887 33.1535 26.7168 33.1068 26.7739L32.4737 27.5579L30.8962 26.2911L31.5293 25.5019C31.6331 25.3773 33.0238 23.6848 35.7377 21.9767C36.3552 21.5874 37.0454 21.1928 37.803 20.819C39.9254 19.7754 42.5926 18.8617 45.8151 18.4983L46.8218 18.384L47.0501 20.3932H47.0553Z" fill="#8CC869"/>
<path d="M41.2538 37.0483C32.2765 37.0483 24.9702 29.7435 24.9702 20.7566C24.9702 11.7696 32.2714 4.46484 41.2538 4.46484C52.6025 4.46484 60.0022 15.5337 56.7693 25.6991L54.8442 25.0865C55.2852 23.6899 55.5136 22.2362 55.5136 20.7566C55.5136 12.8911 49.1153 6.48963 41.2538 6.48963C33.3922 6.48963 26.994 12.8911 26.994 20.7566C26.994 28.6221 33.3922 35.0235 41.2538 35.0235C45.815 35.0235 49.9871 32.9209 52.7114 29.2503L54.3356 30.4548C51.274 34.5822 46.3858 37.0431 41.2538 37.0431V37.0483Z" fill="white"/>
<path d="M27.3572 36.1553L22.7648 40.75L24.0517 42.0324L28.7635 37.3183C28.2757 36.9497 27.8086 36.5655 27.3572 36.1553ZM24.6692 33.2168L19.9523 37.9361L21.2392 39.2237L25.8316 34.629C25.4268 34.1773 25.0376 33.7048 24.6692 33.222V33.2168Z" fill="white"/>
<path d="M25.0273 44.4104L18.598 50.843L17.2021 49.4464L22.9361 43.7095L18.271 39.0421L2.37666 54.9444L7.04171 59.6118L13.7201 52.9249L15.116 54.3214L7.73705 61.7041C7.38938 62.052 6.77187 62.135 6.34117 61.7041L0.290621 55.6453C-0.181592 55.1781 0.00521739 54.5291 0.290621 54.2487L17.5809 36.9498C17.9493 36.5812 18.6083 36.5812 18.9768 36.9498L19.9575 37.931L22.7752 40.7502L24.0621 42.0325L25.0429 43.0138C25.4321 43.398 25.4321 44.0262 25.0429 44.4104H25.0273Z" fill="#8CC869"/>
<path d="M62.0001 20.7567C62.0001 32.2045 52.6959 41.5133 41.2538 41.5133C36.568 41.5133 32.2403 39.9506 28.7635 37.3132C28.2757 36.9446 27.8087 36.5604 27.3573 36.1502C26.8176 35.6674 26.3091 35.1534 25.8317 34.6187C25.4269 34.167 25.0377 33.6945 24.6693 33.2117C19.942 26.9556 20.5128 20.1336 20.5387 19.6508L22.5573 19.7546C22.5417 20.0817 22.5314 20.4192 22.5314 20.7567C22.5314 31.0883 30.9326 39.4937 41.259 39.4937C51.5854 39.4937 59.9867 31.0883 59.9867 20.7567C59.9867 10.4251 51.5802 2.02479 41.2538 2.02479C32.9512 2.02479 25.7486 7.35672 23.3357 15.3001L21.4001 14.7083C24.057 5.99129 32.1313 0 41.2538 0C52.6959 0 62.0001 9.30883 62.0001 20.7567Z" fill="#8CC869"/>
</g>
<defs>
<clipPath id="clip0_32_48">
<rect width="62" height="62" fill="white"/>
</clipPath>
</defs>
</svg>
