<svg width="207" height="56" viewBox="0 0 207 56" fill="none" xmlns="http://www.w3.org/2000/svg">
<g clip-path="url(#clip0_1_26)">
<path d="M68.9382 39.8901V15.5598H79.3173C85.8083 15.5598 87.3322 19.9023 87.3322 23.4171C87.3322 26.9318 85.3841 31.0868 79.1649 31.0868H72.0684V39.8901H68.9382ZM72.0684 28.6689H78.6706C83.0653 28.6689 84.2061 25.9002 84.2061 23.4171C84.2061 20.9339 83.1641 18.0144 78.8642 18.0144H72.0725V28.6689H72.0684Z" fill="white"/>
<path d="M95.2318 40.2691C94.0786 40.2691 88.8602 39.9225 88.8602 34.8665C88.8602 31.841 90.623 29.2763 95.8455 29.2763H102.143C102.143 29.2763 102.765 25.4516 100.236 24.5912C97.3447 23.6045 92.6165 24.6361 90.9608 25.1947V22.6259C94.3257 21.3741 100.508 20.9949 103.193 23.156C104.478 24.1876 105.121 25.8634 105.121 28.1794V39.8899H102.489L102.258 37.8512C100.718 39.4251 98.6915 40.2691 95.2359 40.2691H95.2318ZM96.0349 37.737C98.708 37.737 100.734 36.7217 102.143 35.1315V31.6575H95.9237C93.4525 31.6575 91.9533 32.4241 91.9533 34.8705C91.9533 37.2885 93.8356 37.7411 96.0349 37.7411V37.737Z" fill="white"/>
<path d="M148.05 40.2691C146.896 40.2691 141.678 39.9225 141.678 34.8665C141.678 31.841 143.441 29.2763 148.663 29.2763H154.961C154.961 29.2763 155.583 25.4516 153.054 24.5912C150.162 23.6045 145.434 24.6361 143.779 25.1947V22.6259C147.143 21.3741 153.326 20.9949 156.011 23.156C157.296 24.1876 157.938 25.8634 157.938 28.1794V39.8899H155.307L155.076 37.8512C153.536 39.4251 151.509 40.2691 148.054 40.2691H148.05ZM148.853 37.737C151.526 37.737 153.552 36.7217 154.961 35.1315V31.6575H148.741C146.27 31.6575 144.771 32.4241 144.771 34.8705C144.771 37.2885 146.653 37.7411 148.853 37.7411V37.737Z" fill="white"/>
<path d="M108.741 39.8899V21.9817H111.566L111.756 24.0204C112.658 23.2864 115.063 21.6024 118.778 21.6024C123.412 21.6024 125.343 23.7064 125.343 28.1753V39.8858H122.213V28.2854C122.213 25.2885 121.303 24.0938 117.596 24.0938C115.413 24.0938 113.333 24.9134 111.871 26.3609V39.8858H108.741V39.8899Z" fill="white"/>
<path d="M130.595 34.9032V24.4363H127.848V21.9817H130.595V17.5617L133.725 16.6157V21.9817H138.725L138.535 24.4363H133.729V34.7523C133.729 38.9154 138.185 37.7288 139.223 37.3986V39.739C137.592 40.3507 130.599 41.6758 130.599 34.9032H130.595Z" fill="white"/>
<path d="M170.756 40.2691C168.149 40.2691 166.192 39.6167 164.458 38.002L164.228 39.8899H161.555V15.5596H164.685V23.3028C166.341 22.1692 168.35 21.6024 170.715 21.6024C176.641 21.6024 178.919 25.2192 178.919 30.7849C178.919 37.4964 175.678 40.2691 170.752 40.2691H170.756ZM169.953 37.7737C174.067 37.7737 175.793 35.5923 175.793 30.7849C175.793 25.896 173.931 24.0979 169.879 24.0979C168.783 24.0979 167.803 24.2569 166.942 24.5708C166.077 24.8848 165.327 25.3211 164.689 25.8756V35.6249C166.04 37.0642 167.852 37.7778 169.957 37.7778L169.953 37.7737Z" fill="white"/>
<path d="M182.527 39.8899V24.4363H179.743L180.047 21.9817H185.657V39.8899H182.527ZM182.527 18.369V15.5556H185.694V18.369H182.527Z" fill="white"/>
<path d="M197.955 40.2691C191.534 40.2691 188.911 36.8644 188.911 30.9358C188.911 25.6922 191.065 21.6024 197.955 21.6024C205.254 21.6024 207 26.3038 207 30.9358C207 37.0234 204.278 40.2691 197.955 40.2691ZM197.955 37.6228C202.988 37.6228 203.87 34.6096 203.87 30.9358C203.87 25.3863 201.32 24.2487 197.955 24.2487C193.001 24.2487 192.041 27.1397 192.041 30.9358C192.041 36.3058 194.331 37.6228 197.955 37.6228Z" fill="white"/>
<path d="M32.6693 38.9113C31.7261 39.2742 30.4246 39.6249 29.1519 39.7064C29.2013 39.7757 37.657 54.2834 37.7723 54.4913C39.2962 54.0917 40.9684 53.1499 40.9684 53.1499C40.9684 53.1499 32.7722 39.0907 32.6651 38.9154L32.6693 38.9113Z" fill="white"/>
<path d="M27.4797 16.2446C27.4797 16.2446 25.2886 16.5097 23.9912 17.0846C23.6576 16.5097 15.8157 3.04995 15.6921 2.85015C16.8124 2.29154 17.5043 1.99796 18.8882 1.50867C18.9582 1.63099 27.4797 16.2487 27.4797 16.2487V16.2446Z" fill="white"/>
<path d="M37.7764 1.51274C37.7476 1.57798 32.348 10.8216 32.348 10.8216L30.3175 7.34353C30.3175 7.34353 34.1396 0.786952 34.2879 0.530071C32.974 0.252803 31.9979 0.110092 30.6182 0C30.4946 0.212029 28.3282 3.92661 28.3282 3.92661C28.3282 3.92661 26.2812 0.399592 26.0382 0C24.6667 0.110092 23.8059 0.236493 22.3685 0.525994C22.4344 0.672783 31.8538 16.7992 31.8538 16.7992L32.661 17.0968C32.661 17.0968 40.9272 2.93578 40.9684 2.85423C39.7492 2.24261 38.9585 1.91233 37.7723 1.50866L37.7764 1.51274Z" fill="white"/>
<path d="M12.6525 4.59123C11.2439 5.53721 9.88479 6.66667 9.88479 6.66667L15.3049 15.9633H11.2481C11.2481 15.9633 7.51243 9.5576 7.28591 9.16616C6.21094 10.2793 4.98357 12.0408 4.98357 12.0408L7.26943 15.9592C7.26943 15.9592 2.916 15.9592 2.68948 15.9592C1.7669 17.7289 1.31384 19.3721 1.31384 19.3721H20.3091L20.9516 18.8216C20.9516 18.8216 12.8008 4.84811 12.6525 4.59123Z" fill="white"/>
<path d="M34.2879 55.4699C34.2879 55.4699 32.5622 55.9184 30.6223 56L28.3323 52.0734L26.0423 56C26.0423 56 24.193 55.9266 22.3726 55.474C22.5744 55.1233 26.343 48.6646 26.343 48.6646L24.3207 45.1947L18.8923 54.4954C18.8923 54.4954 17.665 54.1774 15.6962 53.1539C15.8363 52.9134 23.9995 38.9195 23.9995 38.9195L24.8026 39.1886L34.292 55.4699H34.2879Z" fill="white"/>
<path d="M46.7757 6.6789C46.5945 6.99286 38.2789 21.2518 38.1553 21.4516C37.0268 19.7717 35.7006 18.8338 35.7006 18.8338L44.0079 4.59939C44.0079 4.59939 45.5936 5.45973 46.7757 6.6789Z" fill="white"/>
<path d="M56.6481 26.2589H40.0417L39.881 25.4434L49.3663 9.17431C49.3663 9.17431 50.8161 10.5851 51.6687 12.0489C51.4751 12.3792 49.3869 15.9633 49.3869 15.9633H53.9586C53.9586 15.9633 54.8524 17.5127 55.3343 19.3761H47.3976L45.3753 22.8461H56.2239C56.2239 22.8461 56.6687 24.5301 56.6522 26.2589H56.6481Z" fill="white"/>
<path d="M20.9558 37.1784L12.6525 51.4128C12.6525 51.4128 11.3099 50.634 9.88068 49.3415C9.98776 49.1621 18.4722 34.6096 18.4722 34.6096C18.4722 34.6096 19.5678 36.1142 20.9516 37.1784H20.9558Z" fill="white"/>
<path d="M17.6773 22.8461C16.8618 24.5505 16.6065 26.2589 16.6065 26.2589H0C0 26.2589 0.049424 24.5138 0.43246 22.8461H17.6773Z" fill="white"/>
<path d="M16.7465 30.6096L7.28592 46.8338C7.28592 46.8338 5.90205 45.3986 4.98359 43.9592L7.26944 40.0367H2.68949C2.68949 40.0367 1.86987 38.4913 1.31385 36.6239H9.25876L11.2851 33.1458H0.428341C0.428341 33.1458 0.049424 31.4414 0 29.737H16.5735L16.7424 30.6096H16.7465Z" fill="white"/>
<path d="M56.6481 29.737C56.6481 29.737 56.5781 32.0979 56.2239 33.1498C55.7173 33.1498 38.9955 33.1498 38.9749 33.1498C39.3332 32.5015 39.9057 30.9072 40.0458 29.737C40.0828 29.737 56.6481 29.737 56.6481 29.737Z" fill="white"/>
<path d="M55.3343 36.6239C55.3343 36.6239 54.7494 38.7278 53.9586 40.0367H49.3869L51.6687 43.9511C51.6687 43.9511 50.7255 45.525 49.3663 46.8298C49.1398 46.4424 45.4042 40.0367 45.4042 40.0367H41.3555L46.7757 49.3252C46.7757 49.3252 45.5195 50.5158 44.0079 51.4006C43.6908 50.8583 35.7047 37.1662 35.7047 37.1662L36.3307 36.6239H55.3302H55.3343Z" fill="white"/>
</g>
<defs>
<clipPath id="clip0_1_26">
<rect width="207" height="56" fill="white"/>
</clipPath>
</defs>
</svg>
