<svg width="45" height="62" viewBox="0 0 45 62" fill="none" xmlns="http://www.w3.org/2000/svg">
<g clip-path="url(#clip0_32_33)">
<path d="M40.9377 6.50271H35.0894V0.61154C35.0894 0.275193 34.8162 0 34.4823 0H32.6662C32.3323 0 32.0591 0.275193 32.0591 0.61154V6.50271H26.2108C25.8769 6.50271 25.6038 6.7779 25.6038 7.11425V8.94378C25.6038 9.28012 25.8769 9.55532 26.2108 9.55532H32.0591V15.4465C32.0591 15.7828 32.3323 16.058 32.6662 16.058H34.4823C34.8162 16.058 35.0894 15.7828 35.0894 15.4465V9.55532H40.9377C41.2715 9.55532 41.5447 9.28012 41.5447 8.94378V7.11425C41.5447 6.7779 41.2715 6.50271 40.9377 6.50271Z" fill="white"/>
<path d="M19.1079 52.4395H13.2597V46.5483C13.2597 46.212 12.9865 45.9368 12.6526 45.9368H10.8364C10.5025 45.9368 10.2294 46.212 10.2294 46.5483V52.4395H4.38113C4.04723 52.4395 3.77405 52.7147 3.77405 53.051V54.8805C3.77405 55.2169 4.04723 55.4921 4.38113 55.4921H10.2294V61.3833C10.2294 61.7196 10.5025 61.9948 10.8364 61.9948H12.6526C12.9865 61.9948 13.2597 61.7196 13.2597 61.3833V55.4921H19.1079C19.4418 55.4921 19.715 55.2169 19.715 54.8805V53.051C19.715 52.7147 19.4418 52.4395 19.1079 52.4395Z" fill="white"/>
<path d="M23.2816 16.4251C23.5598 16.0327 23.5548 15.5129 23.2715 15.1306L12.6071 0.876657C12.4148 0.616752 12.091 0.463867 11.742 0.463867C11.3929 0.463867 11.0742 0.616752 10.8769 0.876657L0.21752 15.1306C-0.0708445 15.5129 -0.0759036 16.0378 0.207402 16.4251C0.490707 16.8175 0.981432 16.9755 1.43169 16.8175L8.07924 14.5344V27.2442H10.2445V13.0106C10.2445 12.659 10.0776 12.3278 9.79425 12.1239C9.51094 11.9201 9.14669 11.864 8.81786 11.9812L4.07249 13.612L11.747 3.3432L19.4266 13.612L14.6813 11.9812C14.3524 11.8691 13.9831 11.9201 13.7049 12.1239C13.4216 12.3278 13.2546 12.659 13.2546 13.0106V40.4586H10.2496V32.3659H8.0843V41.5441C8.0843 42.1454 8.56997 42.6347 9.16693 42.6347H14.3373C14.9342 42.6347 15.4199 42.1454 15.4199 41.5441V14.5344L22.0674 16.8175C22.5177 16.9704 23.0135 16.8175 23.2917 16.4251H23.2816Z" fill="#8CC869"/>
<path d="M21.7133 35.7854C21.4351 35.393 21.4401 34.8732 21.7234 34.491L32.3878 20.2319C32.5801 19.972 32.9039 19.8191 33.2529 19.8191C33.602 19.8191 33.9207 19.972 34.118 20.2319L44.7825 34.4859C45.0708 34.8681 45.0759 35.393 44.7926 35.7803C44.5093 36.1727 44.0185 36.3307 43.5683 36.1727L36.9207 33.8896V46.5995H34.7555V32.3659C34.7555 32.0142 34.9224 31.683 35.2057 31.4791C35.489 31.2753 35.8533 31.2192 36.1821 31.3364L40.9275 32.9672L33.2479 22.6984L25.5683 32.9672L30.3137 31.3364C30.6425 31.2243 31.0118 31.2753 31.29 31.4791C31.5733 31.683 31.7403 32.0142 31.7403 32.3659V59.8138H34.7454V51.7211H36.9106V60.8993C36.9106 61.5007 36.425 61.9899 35.828 61.9899H30.6577C30.0607 61.9899 29.575 61.5007 29.575 60.8993V33.8845L22.9275 36.1676C22.4772 36.3205 21.9814 36.1676 21.7032 35.7752L21.7133 35.7854Z" fill="#8CC869"/>
</g>
<defs>
<clipPath id="clip0_32_33">
<rect width="45" height="62" fill="white"/>
</clipPath>
</defs>
</svg>
