<svg width="41" height="58" viewBox="0 0 41 58" fill="none" xmlns="http://www.w3.org/2000/svg">
<g clip-path="url(#clip0_34_18)">
<path d="M15.5928 6.21081H10.104V0.584089C10.104 0.26284 9.8476 0 9.53423 0H7.82965C7.51628 0 7.25988 0.26284 7.25988 0.584089V6.21081H1.76631C1.45293 6.21081 1.19653 6.47365 1.19653 6.7949V8.5423C1.19653 8.86354 1.45293 9.12638 1.76631 9.12638H7.25513V14.7531C7.25513 15.0744 7.51153 15.3372 7.82491 15.3372H9.52948C9.84286 15.3372 10.0993 15.0744 10.0993 14.7531V9.12638H15.5881C15.9015 9.12638 16.1579 8.86354 16.1579 8.5423V6.7949C16.1579 6.47365 15.9015 6.21081 15.5881 6.21081H15.5928Z" fill="white"/>
<path d="M41 58L33.6309 45.6611L33.8351 28.1093C33.8398 27.8805 33.7591 27.6517 33.6167 27.4765L21.8034 12.9668V0H19.1919V12.8256L7.96734 28.1385C7.82965 28.3234 7.76317 28.5522 7.77742 28.7858L8.02907 32.928L5.1707 35.498C5.03301 35.6245 4.93329 35.7803 4.88581 35.9604L2.24586 45.2571L4.06914 45.8023L6.62837 36.7781L8.18101 35.3812L8.84574 46.216L0 58H2.3978L5.73098 53.5609L5.64551 57.5084L5.45084 58H7.49728C7.52577 57.9124 7.54001 57.8199 7.54001 57.7274L7.68246 50.9617L10.5693 47.1165C10.707 46.9315 10.7782 46.6979 10.764 46.4642L9.69566 29.0292L12.1979 25.6172L12.4258 29.5451L10.631 38.4671L12.4923 38.8614L14.3156 29.8129C14.3298 29.7301 14.3346 29.6425 14.3298 29.5597L13.9595 23.2127L19.1966 16.0624L18.4464 25.3105L12.5445 41.9424C12.4876 42.0982 12.4733 42.2685 12.497 42.434L13.5559 49.1559L10.2417 55.43C10.1135 55.6734 10.0945 55.9606 10.1847 56.2234L10.8115 58H12.8294L12.1172 55.9752L14.0497 52.3051L14.9471 58H16.8748L14.4153 42.3708L15.9252 38.1118L18.1995 41.7088L16.9888 45.9775C16.9555 46.0846 16.946 46.1965 16.9508 46.3085L17.5206 55.9752L19.4198 55.8583L18.8595 46.3572L20.1415 41.8256C20.2175 41.553 20.1795 41.261 20.0276 41.0225L16.7371 35.8192L19.8566 27.0287L19.9373 29.9491C19.9421 30.0465 19.9563 30.139 19.9848 30.2315L24.3578 43.6606L20.4217 58H24.4148L23.5079 53.9406L26.2666 43.8991C26.3188 43.7093 26.3141 43.5097 26.2523 43.3248L21.8318 29.7496L21.7416 26.4836L27.0595 31.9594L26.9598 49.9152C26.9551 50.0905 27.0025 50.2608 27.088 50.4166L28.351 52.602L29.3101 58H31.2426L30.8153 56.3013L31.7602 58H33.6689L28.8591 49.6573L28.9635 31.5651C28.9635 31.3071 28.8638 31.054 28.6881 30.874L22.9809 24.9941L21.7986 15.9943L25.8393 20.9639L24.9799 23.8503C24.8896 24.1569 24.9514 24.4879 25.1413 24.7362L29.4953 30.4164L29.2722 40.3313L31.1714 40.3751L31.3993 30.1146C31.4041 29.8859 31.3328 29.6668 31.1999 29.4916L26.9408 23.933L27.2922 22.7503L31.9311 28.4451L31.7317 45.9191C31.7269 46.0992 31.7744 46.2793 31.8694 46.435L34.0867 50.1537L34.6565 56.0141C34.666 56.1163 34.6945 56.2137 34.7325 56.311L35.4589 58H37.5386L36.532 55.6636L36.3706 53.9747L38.7731 58H41Z" fill="#8CC869"/>
</g>
<defs>
<clipPath id="clip0_34_18">
<rect width="41" height="58" fill="white"/>
</clipPath>
</defs>
</svg>
