<svg width="60" height="62" viewBox="0 0 60 62" fill="none" xmlns="http://www.w3.org/2000/svg">
<g clip-path="url(#clip0_25_19)">
<path d="M52.072 38.7622L49.9867 37.6856C54.4485 29.1706 57.027 19.183 57.647 7.99286C57.6705 7.54078 57.492 7.11666 57.1491 6.82771C56.9566 6.66458 56.5433 6.40825 55.9562 6.53875C44.2521 9.12538 34.3703 4.57197 30.6646 2.49334C30.256 2.26498 29.744 2.26498 29.3354 2.49334C25.6298 4.57197 15.7433 9.12538 4.04384 6.53875C3.61175 6.44088 3.17496 6.54807 2.84149 6.83237C2.50333 7.11666 2.32486 7.53612 2.35304 7.98353C2.5503 11.2227 2.90724 14.3872 3.41449 17.3933L1.09903 17.7755C0.577695 14.6995 0.211354 11.451 0.00939748 8.13267C-0.0610526 6.94888 0.413311 5.83034 1.31507 5.066C2.21214 4.30632 3.3957 4.01736 4.55108 4.27369C15.4615 6.68323 24.7092 2.41878 28.18 0.475304C29.3026 -0.153877 30.6975 -0.153877 31.82 0.475304C35.2908 2.41878 44.5386 6.68789 55.4489 4.27369C56.6043 4.01736 57.7785 4.30632 58.6708 5.06134C59.5773 5.82568 60.0564 6.94422 59.9906 8.12801C59.3519 19.649 56.6889 29.9536 52.072 38.7668V38.7622Z" fill="#8CC869"/>
<path d="M29.9977 61.9999C29.0489 61.9999 28.1002 61.683 27.3252 61.0445C26.9542 60.7369 26.5503 60.4107 26.1135 60.0611C20.0454 55.1675 8.7546 46.0653 3.11859 26.7098L5.37299 26.062C10.8023 44.7137 21.7268 53.5223 27.593 58.2528C28.0344 58.607 28.4431 58.9379 28.8235 59.2502C29.5045 59.8094 30.4908 59.8094 31.1718 59.2502C31.5053 58.9752 31.8716 58.6816 32.2568 58.3693C35.8826 55.4331 41.3636 50.9916 46.3937 43.6604L48.3335 44.9701C43.1108 52.5808 37.2446 57.3347 33.7362 60.173C33.3558 60.4806 32.9941 60.7742 32.6654 61.0445C31.8904 61.683 30.9417 61.9999 29.993 61.9999H29.9977Z" fill="#8CC869"/>
<path d="M29.9976 54.7109C29.5515 54.7109 29.1006 54.5665 28.7295 54.2775C23.9014 50.5397 8.05948 36.4087 6.96985 11.4978C6.94636 10.9432 7.19529 10.4072 7.63678 10.067C8.08296 9.72213 8.67474 9.61494 9.21955 9.77806C18.7397 12.6303 26.865 8.3659 29.1288 6.99102C29.6689 6.66478 30.3358 6.66478 30.8712 6.99102C33.135 8.3659 41.2556 12.6257 50.7804 9.7734C51.3252 9.61028 51.917 9.71747 52.3632 10.0624C52.8047 10.4026 53.0583 10.9385 53.0301 11.4978C51.9358 36.4087 36.0986 50.5397 31.2657 54.2775C30.8947 54.5665 30.4438 54.7109 29.9976 54.7109ZM9.35576 12.2342C10.7037 35.3321 25.2305 48.5683 29.9976 52.3014C34.7648 48.5636 49.2963 35.3368 50.6395 12.2342C40.9832 14.7742 32.8062 10.8174 29.9976 9.18616C27.189 10.8174 19.0121 14.7742 9.35576 12.2342Z" fill="#8CC869"/>
<path d="M39.5131 26.5748H31.1718V18.3022H28.8235V26.5748H20.4869V28.9051H28.8235V37.1823H31.1718V28.9051H39.5131V26.5748Z" fill="white"/>
</g>
<defs>
<clipPath id="clip0_25_19">
<rect width="60" height="62" fill="white"/>
</clipPath>
</defs>
</svg>
