<svg width="50" height="50" viewBox="0 0 50 50" fill="none" xmlns="http://www.w3.org/2000/svg">
<g clip-path="url(#clip0_54_359)">
<path d="M5.7958 0H44.242C45.3615 0.235898 46.4107 0.6308 47.3308 1.33458C48.8023 2.45934 49.6403 3.96335 50 5.758V44.2042C49.9609 44.3619 49.9205 44.5183 49.8814 44.676C49.0681 47.9303 46.4263 49.9974 43.069 49.9987C30.9704 50 18.8719 50.0026 6.77328 49.9961C3.04452 49.9948 0.00521322 46.9542 0.00390992 43.2254C-0.00260661 31.0617 0.00260661 18.8979 0 6.73418C0 5.17803 0.501772 3.79913 1.44797 2.57794C2.55578 1.14952 4.04416 0.350589 5.7958 0ZM40.4207 24.7615C40.4377 24.0082 40.3699 23.1532 40.2252 22.2995C38.5505 12.4713 28.2322 6.74982 19.0074 10.6649C10.8852 14.1122 7.3754 23.38 11.0612 31.411C11.2123 31.7394 11.2553 32.047 11.1798 32.3963C10.966 33.3802 10.7679 34.3682 10.5633 35.3548C10.2635 36.8027 9.95986 38.2494 9.66922 39.6987C9.54932 40.2982 9.8178 40.5667 10.4199 40.4754C10.532 40.4585 10.6428 40.4324 10.7536 40.4051C12.9835 39.8772 15.2148 39.3585 17.4395 38.815C17.9061 38.7016 18.3101 38.7394 18.7533 38.9362C21.5097 40.1679 24.3887 40.5471 27.3746 40.0897C35.098 38.9076 40.508 32.1799 40.422 24.7589L40.4207 24.7615Z" fill="#8cc869"/>
<path d="M25.0235 37.0217C22.9773 37.053 21.0627 36.5434 19.2681 35.5841C18.7637 35.3143 18.3023 35.2427 17.7393 35.3965C16.5806 35.7158 15.4025 35.9634 14.2308 36.2319C13.742 36.344 13.6834 36.2879 13.7838 35.7861C14.0379 34.5115 14.2907 33.2369 14.5736 31.9688C14.6609 31.5752 14.6153 31.2415 14.4276 30.8948C13.6925 29.5407 13.1894 28.1136 12.9575 26.5809C12.2015 21.5958 14.7704 16.492 19.2589 14.1187C26.6278 10.2231 35.5112 14.537 37.0191 22.744C38.2676 29.542 33.4702 36.0559 26.5783 36.9344C26.0583 37.0008 25.5422 37.0112 25.0222 37.0204L25.0235 37.0217ZM29.0285 32.3259C29.4169 32.292 29.8105 32.2881 30.1924 32.2203C31.5061 31.9896 32.2985 31.0643 32.9958 30.0386C33.5419 29.2344 33.2799 28.5033 32.3519 28.2205C31.5752 27.9832 30.7723 27.819 30.0125 27.5388C29.2071 27.243 28.6284 27.445 28.0654 28.0614C27.2599 28.9425 26.8246 28.9816 25.8172 28.343C24.2532 27.3525 22.8847 26.13 21.7039 24.7067C20.9402 23.7879 20.9598 23.3891 21.7 22.4312C21.79 22.3152 21.876 22.1979 21.9646 22.0806C22.2565 21.6987 22.3178 21.296 22.1158 20.8477C21.7065 19.9445 21.326 19.0282 20.9037 18.1303C20.5662 17.4121 19.805 17.2414 19.1977 17.738C18.6412 18.1928 18.1589 18.7181 17.7758 19.3332C17.3731 19.9797 17.2375 20.69 17.2753 21.4328C17.347 22.8326 17.8279 24.1046 18.6008 25.258C20.2481 27.7187 22.3764 29.6775 24.9453 31.1412C26.2016 31.858 27.5532 32.3154 29.0285 32.322V32.3259Z" fill="#8cc869"/>
</g>
<defs>
<clipPath id="clip0_54_359">
<rect width="50" height="50" fill="#8cc869"/>
</clipPath>
</defs>
</svg>
